<ttFont>
<head>
    <!-- Most of this table will be recalculated by the compiler -->
    <tableVersion value="1.0"/>
    <fontRevision value="0.84999"/>
    <checkSumAdjustment value="0xc9bd0a89"/>
    <magicNumber value="0x5f0f3cf5"/>
    <flags value="00000000 00000111"/>
    <unitsPerEm value="1000"/>
    <created value="Sat Nov 28 12:14:13 2020"/>
    <modified value="Wed Sep  1 18:33:29 2021"/>
    <xMin value="-145"/>
    <yMin value="-216"/>
    <xMax value="677"/>
    <yMax value="1024"/>
    <macStyle value="00000000 00000000"/>
    <lowestRecPPEM value="7"/>
    <fontDirectionHint value="2"/>
    <indexToLocFormat value="0"/>
    <glyphDataFormat value="0"/>
  </head>
    <TTGlyph name=".notdef" xMin="98" yMin="-200" xMax="431" yMax="850">
      <contour>
        <pt x="431" y="-200" on="1"/>
        <pt x="98" y="-200" on="1"/>
        <pt x="98" y="850" on="1"/>
        <pt x="431" y="850" on="1"/>
      </contour>
      <contour>
        <pt x="350" y="-128" on="1"/>
        <pt x="350" y="-93" on="1"/>
        <pt x="243" y="-93" on="1"/>
        <pt x="316" y="-44" on="1"/>
        <pt x="350" y="-44" on="1"/>
        <pt x="350" y="-9" on="1"/>
        <pt x="175" y="-9" on="1"/>
        <pt x="175" y="-44" on="1"/>
        <pt x="249" y="-44" on="1"/>
        <pt x="175" y="-93" on="1"/>
        <pt x="175" y="-128" on="1"/>
      </contour>
      <contour>
        <pt x="350" y="15" on="1"/>
        <pt x="350" y="134" on="1"/>
        <pt x="175" y="134" on="1"/>
        <pt x="175" y="15" on="1"/>
      </contour>
      <contour>
        <pt x="350" y="197" on="1"/>
        <pt x="350" y="316" on="1"/>
        <pt x="245" y="316" on="1"/>
        <pt x="245" y="257" on="1"/>
        <pt x="280" y="257" on="1"/>
        <pt x="280" y="281" on="1"/>
        <pt x="315" y="281" on="1"/>
        <pt x="315" y="232" on="1"/>
        <pt x="210" y="232" on="1"/>
        <pt x="210" y="316" on="1"/>
        <pt x="175" y="316" on="1"/>
        <pt x="175" y="197" on="1"/>
      </contour>
      <contour>
        <pt x="350" y="339" on="1"/>
        <pt x="350" y="444" on="1"/>
        <pt x="315" y="444" on="1"/>
        <pt x="315" y="374" on="1"/>
        <pt x="175" y="374" on="1"/>
        <pt x="175" y="339" on="1"/>
      </contour>
      <contour>
        <pt x="280" y="399" on="1"/>
        <pt x="280" y="472" on="1"/>
        <pt x="350" y="472" on="1"/>
        <pt x="350" y="507" on="1"/>
        <pt x="175" y="507" on="1"/>
        <pt x="175" y="472" on="1"/>
        <pt x="245" y="472" on="1"/>
        <pt x="245" y="433" on="1"/>
        <pt x="175" y="433" on="1"/>
        <pt x="175" y="399" on="1"/>
      </contour>
      <contour>
        <pt x="350" y="535" on="1"/>
        <pt x="350" y="571" on="1"/>
        <pt x="280" y="571" on="1"/>
        <pt x="280" y="644" on="1"/>
        <pt x="175" y="644" on="1"/>
        <pt x="175" y="535" on="1"/>
      </contour>
      <contour>
        <pt x="350" y="672" on="1"/>
        <pt x="350" y="706" on="1"/>
        <pt x="280" y="706" on="1"/>
        <pt x="280" y="745" on="1"/>
        <pt x="350" y="745" on="1"/>
        <pt x="350" y="780" on="1"/>
        <pt x="176" y="780" on="1"/>
        <pt x="176" y="745" on="1"/>
        <pt x="245" y="745" on="1"/>
        <pt x="245" y="706" on="1"/>
        <pt x="175" y="706" on="1"/>
        <pt x="175" y="672" on="1"/>
      </contour>
      <contour>
        <pt x="210" y="99" on="1"/>
        <pt x="315" y="99" on="1"/>
        <pt x="315" y="50" on="1"/>
        <pt x="210" y="50" on="1"/>
      </contour>
      <contour>
        <pt x="210" y="609" on="1"/>
        <pt x="245" y="609" on="1"/>
        <pt x="245" y="571" on="1"/>
        <pt x="210" y="571" on="1"/>
      </contour>
    </TTGlyph>
    <TTGlyph name="A" xMin="52" yMin="0" xMax="648" yMax="800">
      <contour>
        <pt x="460" y="271" on="1"/>
        <pt x="234" y="271" on="1"/>
        <pt x="166" y="0" on="1"/>
        <pt x="52" y="0" on="1"/>
        <pt x="256" y="800" on="1"/>
        <pt x="444" y="800" on="1"/>
        <pt x="648" y="0" on="1"/>
        <pt x="527" y="0" on="1"/>
      </contour>
      <contour>
        <pt x="433" y="379" on="1"/>
        <pt x="347" y="724" on="1"/>
        <pt x="261" y="379" on="1"/>
      </contour>
    </TTGlyph>
    <TTGlyph name="B" xMin="113" yMin="0" xMax="633" yMax="800">
      <contour>
        <pt x="493" y="800" on="0"/>
        <pt x="633" y="685" on="0"/>
        <pt x="633" y="582" on="1"/>
        <pt x="633" y="509" on="0"/>
        <pt x="557" y="424" on="0"/>
        <pt x="484" y="416" on="1"/>
        <pt x="484" y="386" on="1"/>
        <pt x="554" y="378" on="0"/>
        <pt x="627" y="292" on="0"/>
        <pt x="627" y="218" on="1"/>
        <pt x="627" y="115" on="0"/>
        <pt x="487" y="0" on="0"/>
        <pt x="363" y="0" on="1"/>
        <pt x="113" y="0" on="1"/>
        <pt x="113" y="800" on="1"/>
        <pt x="369" y="800" on="1"/>
      </contour>
      <contour>
        <pt x="363" y="110" on="1"/>
        <pt x="437" y="110" on="0"/>
        <pt x="515" y="171" on="0"/>
        <pt x="515" y="229" on="1"/>
        <pt x="515" y="287" on="0"/>
        <pt x="437" y="348" on="0"/>
        <pt x="363" y="348" on="1"/>
        <pt x="227" y="348" on="1"/>
        <pt x="227" y="110" on="1"/>
      </contour>
      <contour>
        <pt x="369" y="454" on="1"/>
        <pt x="443" y="454" on="0"/>
        <pt x="521" y="514" on="0"/>
        <pt x="521" y="572" on="1"/>
        <pt x="521" y="630" on="0"/>
        <pt x="443" y="690" on="0"/>
        <pt x="369" y="690" on="1"/>
        <pt x="227" y="690" on="1"/>
        <pt x="227" y="454" on="1"/>
      </contour>
    </TTGlyph>
    <TTGlyph name="C" xMin="81" yMin="-16" xMax="645" yMax="816">
      <contour>
        <pt x="224" y="-16" on="0"/>
        <pt x="81" y="193" on="0"/>
        <pt x="81" y="400" on="1"/>
        <pt x="81" y="606" on="0"/>
        <pt x="230" y="816" on="0"/>
        <pt x="374" y="816" on="1"/>
        <pt x="491" y="816" on="0"/>
        <pt x="630" y="666" on="0"/>
        <pt x="645" y="523" on="1"/>
        <pt x="533" y="523" on="1"/>
        <pt x="521" y="617" on="0"/>
        <pt x="443" y="706" on="0"/>
        <pt x="374" y="706" on="1"/>
        <pt x="282" y="706" on="0"/>
        <pt x="195" y="557" on="0"/>
        <pt x="195" y="400" on="1"/>
        <pt x="195" y="243" on="0"/>
        <pt x="278" y="94" on="0"/>
        <pt x="364" y="94" on="1"/>
        <pt x="432" y="94" on="0"/>
        <pt x="507" y="176" on="0"/>
        <pt x="519" y="263" on="1"/>
        <pt x="631" y="263" on="1"/>
        <pt x="616" y="126" on="0"/>
        <pt x="480" y="-16" on="0"/>
        <pt x="364" y="-16" on="1"/>
      </contour>
    </TTGlyph>
    <TTGlyph name="D" xMin="93" yMin="0" xMax="627" yMax="800">
      <contour>
        <pt x="93" y="800" on="1"/>
        <pt x="302" y="800" on="1"/>
        <pt x="627" y="800" on="0"/>
        <pt x="627" y="400" on="1"/>
        <pt x="627" y="0" on="0"/>
        <pt x="302" y="0" on="1"/>
        <pt x="93" y="0" on="1"/>
      </contour>
      <contour>
        <pt x="302" y="110" on="1"/>
        <pt x="513" y="110" on="0"/>
        <pt x="513" y="400" on="1"/>
        <pt x="513" y="690" on="0"/>
        <pt x="302" y="690" on="1"/>
        <pt x="207" y="690" on="1"/>
        <pt x="207" y="110" on="1"/>
      </contour>
    </TTGlyph>
    <TTGlyph name="E" xMin="133" yMin="0" xMax="613" yMax="800">
      <contour>
        <pt x="133" y="800" on="1"/>
        <pt x="613" y="800" on="1"/>
        <pt x="613" y="690" on="1"/>
        <pt x="247" y="690" on="1"/>
        <pt x="247" y="456" on="1"/>
        <pt x="557" y="456" on="1"/>
        <pt x="557" y="350" on="1"/>
        <pt x="247" y="350" on="1"/>
        <pt x="247" y="110" on="1"/>
        <pt x="593" y="110" on="1"/>
        <pt x="593" y="0" on="1"/>
        <pt x="133" y="0" on="1"/>
      </contour>
    </TTGlyph>
    <TTGlyph name="Euro" xMin="40" yMin="-16" xMax="650" yMax="816">
      <contour>
        <pt x="283" y="-16" on="0"/>
        <pt x="152" y="130" on="0"/>
        <pt x="133" y="275" on="1"/>
        <pt x="40" y="275" on="1"/>
        <pt x="40" y="367" on="1"/>
        <pt x="126" y="367" on="1"/>
        <pt x="126" y="400" on="1"/>
        <pt x="126" y="432" on="0"/>
        <pt x="127" y="447" on="1"/>
        <pt x="40" y="447" on="1"/>
        <pt x="40" y="539" on="1"/>
        <pt x="135" y="539" on="1"/>
        <pt x="177" y="816" on="0"/>
        <pt x="397" y="816" on="1"/>
        <pt x="510" y="816" on="0"/>
        <pt x="640" y="673" on="0"/>
        <pt x="650" y="539" on="1"/>
        <pt x="540" y="539" on="1"/>
        <pt x="531" y="625" on="0"/>
        <pt x="461" y="706" on="0"/>
        <pt x="397" y="706" on="1"/>
        <pt x="337" y="706" on="0"/>
        <pt x="263" y="624" on="0"/>
        <pt x="249" y="539" on="1"/>
        <pt x="453" y="539" on="1"/>
        <pt x="453" y="447" on="1"/>
        <pt x="240" y="447" on="1"/>
        <pt x="239" y="432" on="0"/>
        <pt x="239" y="400" on="1"/>
        <pt x="239" y="367" on="1"/>
        <pt x="453" y="367" on="1"/>
        <pt x="453" y="275" on="1"/>
        <pt x="247" y="275" on="1"/>
        <pt x="260" y="183" on="0"/>
        <pt x="332" y="94" on="0"/>
        <pt x="394" y="94" on="1"/>
        <pt x="450" y="94" on="0"/>
        <pt x="512" y="165" on="0"/>
        <pt x="522" y="241" on="1"/>
        <pt x="632" y="241" on="1"/>
        <pt x="621" y="117" on="0"/>
        <pt x="498" y="-16" on="0"/>
        <pt x="394" y="-16" on="1"/>
      </contour>
    </TTGlyph>
    <TTGlyph name="F" xMin="150" yMin="0" xMax="630" yMax="800">
      <contour>
        <pt x="150" y="800" on="1"/>
        <pt x="630" y="800" on="1"/>
        <pt x="630" y="690" on="1"/>
        <pt x="264" y="690" on="1"/>
        <pt x="264" y="446" on="1"/>
        <pt x="583" y="446" on="1"/>
        <pt x="583" y="336" on="1"/>
        <pt x="264" y="336" on="1"/>
        <pt x="264" y="0" on="1"/>
        <pt x="150" y="0" on="1"/>
      </contour>
    </TTGlyph>
    <TTGlyph name="G" xMin="71" yMin="-16" xMax="634" yMax="816">
      <contour>
        <pt x="207" y="-16" on="0"/>
        <pt x="71" y="196" on="0"/>
        <pt x="71" y="400" on="1"/>
        <pt x="71" y="606" on="0"/>
        <pt x="221" y="816" on="0"/>
        <pt x="367" y="816" on="1"/>
        <pt x="483" y="816" on="0"/>
        <pt x="620" y="677" on="0"/>
        <pt x="634" y="543" on="1"/>
        <pt x="522" y="543" on="1"/>
        <pt x="511" y="627" on="0"/>
        <pt x="435" y="706" on="0"/>
        <pt x="367" y="706" on="1"/>
        <pt x="273" y="706" on="0"/>
        <pt x="185" y="558" on="0"/>
        <pt x="185" y="400" on="1"/>
        <pt x="185" y="241" on="0"/>
        <pt x="272" y="90" on="0"/>
        <pt x="362" y="90" on="1"/>
        <pt x="427" y="90" on="0"/>
        <pt x="500" y="187" on="0"/>
        <pt x="512" y="290" on="1"/>
        <pt x="342" y="290" on="1"/>
        <pt x="342" y="400" on="1"/>
        <pt x="608" y="400" on="1"/>
        <pt x="608" y="0" on="1"/>
        <pt x="510" y="0" on="1"/>
        <pt x="510" y="90" on="1"/>
        <pt x="480" y="90" on="1"/>
        <pt x="449" y="-16" on="0"/>
        <pt x="330" y="-16" on="1"/>
      </contour>
    </TTGlyph>
    <TTGlyph name="H" xMin="93" yMin="0" xMax="607" yMax="800">
      <contour>
        <pt x="207" y="800" on="1"/>
        <pt x="207" y="457" on="1"/>
        <pt x="493" y="457" on="1"/>
        <pt x="493" y="800" on="1"/>
        <pt x="607" y="800" on="1"/>
        <pt x="607" y="0" on="1"/>
        <pt x="493" y="0" on="1"/>
        <pt x="493" y="349" on="1"/>
        <pt x="207" y="349" on="1"/>
        <pt x="207" y="0" on="1"/>
        <pt x="93" y="0" on="1"/>
        <pt x="93" y="800" on="1"/>
      </contour>
    </TTGlyph>
    <TTGlyph name="I" xMin="113" yMin="0" xMax="587" yMax="800">
      <contour>
        <pt x="113" y="110" on="1"/>
        <pt x="293" y="110" on="1"/>
        <pt x="293" y="690" on="1"/>
        <pt x="113" y="690" on="1"/>
        <pt x="113" y="800" on="1"/>
        <pt x="587" y="800" on="1"/>
        <pt x="587" y="690" on="1"/>
        <pt x="407" y="690" on="1"/>
        <pt x="407" y="110" on="1"/>
        <pt x="587" y="110" on="1"/>
        <pt x="587" y="0" on="1"/>
        <pt x="113" y="0" on="1"/>
      </contour>
    </TTGlyph>
    <TTGlyph name="J" xMin="95" yMin="-16" xMax="579" yMax="800">
      <contour>
        <pt x="223" y="-16" on="0"/>
        <pt x="95" y="118" on="0"/>
        <pt x="95" y="237" on="1"/>
        <pt x="95" y="350" on="1"/>
        <pt x="207" y="350" on="1"/>
        <pt x="207" y="237" on="1"/>
        <pt x="207" y="167" on="0"/>
        <pt x="273" y="94" on="0"/>
        <pt x="336" y="94" on="1"/>
        <pt x="399" y="94" on="0"/>
        <pt x="465" y="167" on="0"/>
        <pt x="465" y="237" on="1"/>
        <pt x="465" y="690" on="1"/>
        <pt x="153" y="690" on="1"/>
        <pt x="153" y="800" on="1"/>
        <pt x="579" y="800" on="1"/>
        <pt x="579" y="237" on="1"/>
        <pt x="579" y="118" on="0"/>
        <pt x="451" y="-16" on="0"/>
        <pt x="336" y="-16" on="1"/>
      </contour>
    </TTGlyph>
    <TTGlyph name="K" xMin="130" yMin="0" xMax="672" yMax="800">
      <contour>
        <pt x="244" y="800" on="1"/>
        <pt x="244" y="434" on="1"/>
        <pt x="535" y="800" on="1"/>
        <pt x="672" y="800" on="1"/>
        <pt x="344" y="390" on="1"/>
        <pt x="657" y="0" on="1"/>
        <pt x="514" y="0" on="1"/>
        <pt x="244" y="340" on="1"/>
        <pt x="244" y="0" on="1"/>
        <pt x="130" y="0" on="1"/>
        <pt x="130" y="800" on="1"/>
      </contour>
    </TTGlyph>
    <TTGlyph name="L" xMin="169" yMin="0" xMax="629" yMax="800">
      <contour>
        <pt x="169" y="800" on="1"/>
        <pt x="283" y="800" on="1"/>
        <pt x="283" y="110" on="1"/>
        <pt x="629" y="110" on="1"/>
        <pt x="629" y="0" on="1"/>
        <pt x="169" y="0" on="1"/>
      </contour>
    </TTGlyph>
    <TTGlyph name="M" xMin="73" yMin="0" xMax="627" yMax="800">
      <contour>
        <pt x="73" y="800" on="1"/>
        <pt x="263" y="800" on="1"/>
        <pt x="348" y="337" on="1"/>
        <pt x="358" y="337" on="1"/>
        <pt x="444" y="800" on="1"/>
        <pt x="627" y="800" on="1"/>
        <pt x="627" y="0" on="1"/>
        <pt x="517" y="0" on="1"/>
        <pt x="517" y="493" on="1"/>
        <pt x="525" y="713" on="1"/>
        <pt x="515" y="713" on="1"/>
        <pt x="430" y="270" on="1"/>
        <pt x="270" y="270" on="1"/>
        <pt x="185" y="713" on="1"/>
        <pt x="175" y="713" on="1"/>
        <pt x="183" y="493" on="1"/>
        <pt x="183" y="0" on="1"/>
        <pt x="73" y="0" on="1"/>
      </contour>
    </TTGlyph>
    <TTGlyph name="N" xMin="93" yMin="0" xMax="607" yMax="800">
      <contour>
        <pt x="93" y="800" on="1"/>
        <pt x="299" y="800" on="1"/>
        <pt x="489" y="77" on="1"/>
        <pt x="499" y="77" on="1"/>
        <pt x="493" y="303" on="1"/>
        <pt x="493" y="800" on="1"/>
        <pt x="607" y="800" on="1"/>
        <pt x="607" y="0" on="1"/>
        <pt x="401" y="0" on="1"/>
        <pt x="211" y="723" on="1"/>
        <pt x="201" y="723" on="1"/>
        <pt x="207" y="497" on="1"/>
        <pt x="207" y="0" on="1"/>
        <pt x="93" y="0" on="1"/>
      </contour>
    </TTGlyph>
    <TTGlyph name="O" xMin="58" yMin="-16" xMax="642" yMax="816">
      <contour>
        <pt x="58" y="-16" on="0"/>
        <pt x="58" y="400" on="1"/>
        <pt x="58" y="816" on="0"/>
        <pt x="350" y="816" on="1"/>
        <pt x="642" y="816" on="0"/>
        <pt x="642" y="400" on="1"/>
        <pt x="642" y="-16" on="0"/>
        <pt x="350" y="-16" on="1"/>
      </contour>
      <contour>
        <pt x="172" y="241" on="0"/>
        <pt x="258" y="91" on="0"/>
        <pt x="350" y="91" on="1"/>
        <pt x="442" y="91" on="0"/>
        <pt x="528" y="241" on="0"/>
        <pt x="528" y="400" on="1"/>
        <pt x="528" y="559" on="0"/>
        <pt x="442" y="709" on="0"/>
        <pt x="350" y="709" on="1"/>
        <pt x="258" y="709" on="0"/>
        <pt x="172" y="559" on="0"/>
        <pt x="172" y="400" on="1"/>
      </contour>
    </TTGlyph>
    <TTGlyph name="P" xMin="130" yMin="0" xMax="654" yMax="800">
      <contour>
        <pt x="130" y="800" on="1"/>
        <pt x="404" y="800" on="1"/>
        <pt x="520" y="800" on="0"/>
        <pt x="654" y="674" on="0"/>
        <pt x="654" y="564" on="1"/>
        <pt x="654" y="455" on="0"/>
        <pt x="520" y="331" on="0"/>
        <pt x="404" y="331" on="1"/>
        <pt x="244" y="331" on="1"/>
        <pt x="244" y="0" on="1"/>
        <pt x="130" y="0" on="1"/>
      </contour>
      <contour>
        <pt x="408" y="436" on="1"/>
        <pt x="470" y="436" on="0"/>
        <pt x="540" y="504" on="0"/>
        <pt x="540" y="563" on="1"/>
        <pt x="540" y="622" on="0"/>
        <pt x="470" y="690" on="0"/>
        <pt x="408" y="690" on="1"/>
        <pt x="244" y="690" on="1"/>
        <pt x="244" y="436" on="1"/>
      </contour>
    </TTGlyph>
    <TTGlyph name="Q" xMin="58" yMin="-216" xMax="642" yMax="816">
      <contour>
        <pt x="442" y="91" on="0"/>
        <pt x="528" y="241" on="0"/>
        <pt x="528" y="400" on="1"/>
        <pt x="528" y="559" on="0"/>
        <pt x="442" y="709" on="0"/>
        <pt x="350" y="709" on="1"/>
        <pt x="258" y="709" on="0"/>
        <pt x="172" y="559" on="0"/>
        <pt x="172" y="400" on="1"/>
        <pt x="172" y="241" on="0"/>
        <pt x="258" y="91" on="0"/>
        <pt x="350" y="91" on="1"/>
      </contour>
      <contour>
        <pt x="58" y="816" on="0"/>
        <pt x="350" y="816" on="1"/>
        <pt x="642" y="816" on="0"/>
        <pt x="642" y="400" on="1"/>
        <pt x="642" y="2" on="0"/>
        <pt x="375" y="-15" on="1"/>
        <pt x="607" y="-109" on="1"/>
        <pt x="607" y="-216" on="1"/>
        <pt x="330" y="-104" on="1"/>
        <pt x="330" y="-15" on="1"/>
        <pt x="58" y="-1" on="0"/>
        <pt x="58" y="400" on="1"/>
      </contour>
    </TTGlyph>
    <TTGlyph name="R" xMin="115" yMin="0" xMax="660" yMax="800">
      <contour>
        <pt x="115" y="800" on="1"/>
        <pt x="386" y="800" on="1"/>
        <pt x="504" y="800" on="0"/>
        <pt x="640" y="676" on="0"/>
        <pt x="640" y="569" on="1"/>
        <pt x="640" y="479" on="0"/>
        <pt x="538" y="364" on="0"/>
        <pt x="447" y="350" on="1"/>
        <pt x="660" y="0" on="1"/>
        <pt x="527" y="0" on="1"/>
        <pt x="326" y="345" on="1"/>
        <pt x="229" y="345" on="1"/>
        <pt x="229" y="0" on="1"/>
        <pt x="115" y="0" on="1"/>
      </contour>
      <contour>
        <pt x="388" y="447" on="1"/>
        <pt x="454" y="447" on="0"/>
        <pt x="526" y="511" on="0"/>
        <pt x="526" y="569" on="1"/>
        <pt x="526" y="627" on="0"/>
        <pt x="454" y="690" on="0"/>
        <pt x="388" y="690" on="1"/>
        <pt x="229" y="690" on="1"/>
        <pt x="229" y="447" on="1"/>
      </contour>
    </TTGlyph>
    <TTGlyph name="S" xMin="85" yMin="-16" xMax="639" yMax="816">
      <contour>
        <pt x="216" y="94" on="0"/>
        <pt x="359" y="94" on="1"/>
        <pt x="428" y="94" on="0"/>
        <pt x="505" y="162" on="0"/>
        <pt x="505" y="224" on="1"/>
        <pt x="505" y="274" on="0"/>
        <pt x="451" y="329" on="0"/>
        <pt x="393" y="336" on="1"/>
        <pt x="310" y="346" on="1"/>
        <pt x="202" y="361" on="0"/>
        <pt x="95" y="474" on="0"/>
        <pt x="95" y="574" on="1"/>
        <pt x="95" y="647" on="0"/>
        <pt x="160" y="757" on="0"/>
        <pt x="281" y="816" on="0"/>
        <pt x="362" y="816" on="1"/>
        <pt x="485" y="816" on="0"/>
        <pt x="628" y="692" on="0"/>
        <pt x="639" y="576" on="1"/>
        <pt x="525" y="576" on="1"/>
        <pt x="509" y="706" on="0"/>
        <pt x="362" y="706" on="1"/>
        <pt x="289" y="706" on="0"/>
        <pt x="209" y="637" on="0"/>
        <pt x="209" y="574" on="1"/>
        <pt x="209" y="524" on="0"/>
        <pt x="263" y="469" on="0"/>
        <pt x="320" y="462" on="1"/>
        <pt x="403" y="452" on="1"/>
        <pt x="619" y="422" on="0"/>
        <pt x="619" y="224" on="1"/>
        <pt x="619" y="151" on="0"/>
        <pt x="555" y="43" on="0"/>
        <pt x="438" y="-16" on="0"/>
        <pt x="359" y="-16" on="1"/>
        <pt x="238" y="-16" on="0"/>
        <pt x="97" y="97" on="0"/>
        <pt x="85" y="204" on="1"/>
        <pt x="201" y="204" on="1"/>
      </contour>
    </TTGlyph>
    <TTGlyph name="T" xMin="73" yMin="0" xMax="627" yMax="800">
      <contour>
        <pt x="293" y="690" on="1"/>
        <pt x="73" y="690" on="1"/>
        <pt x="73" y="800" on="1"/>
        <pt x="627" y="800" on="1"/>
        <pt x="627" y="690" on="1"/>
        <pt x="407" y="690" on="1"/>
        <pt x="407" y="0" on="1"/>
        <pt x="293" y="0" on="1"/>
      </contour>
    </TTGlyph>
    <TTGlyph name="U" xMin="85" yMin="-16" xMax="615" yMax="800">
      <contour>
        <pt x="199" y="800" on="1"/>
        <pt x="199" y="263" on="1"/>
        <pt x="199" y="181" on="0"/>
        <pt x="277" y="94" on="0"/>
        <pt x="350" y="94" on="1"/>
        <pt x="423" y="94" on="0"/>
        <pt x="501" y="181" on="0"/>
        <pt x="501" y="263" on="1"/>
        <pt x="501" y="800" on="1"/>
        <pt x="615" y="800" on="1"/>
        <pt x="615" y="263" on="1"/>
        <pt x="615" y="132" on="0"/>
        <pt x="475" y="-16" on="0"/>
        <pt x="350" y="-16" on="1"/>
        <pt x="225" y="-16" on="0"/>
        <pt x="85" y="132" on="0"/>
        <pt x="85" y="263" on="1"/>
        <pt x="85" y="800" on="1"/>
      </contour>
    </TTGlyph>
    <TTGlyph name="V" xMin="52" yMin="0" xMax="648" yMax="800">
      <contour>
        <pt x="353" y="76" on="1"/>
        <pt x="534" y="800" on="1"/>
        <pt x="648" y="800" on="1"/>
        <pt x="444" y="0" on="1"/>
        <pt x="256" y="0" on="1"/>
        <pt x="52" y="800" on="1"/>
        <pt x="173" y="800" on="1"/>
      </contour>
    </TTGlyph>
    <TTGlyph name="W" xMin="23" yMin="0" xMax="677" yMax="800">
      <contour>
        <pt x="211" y="141" on="1"/>
        <pt x="275" y="600" on="1"/>
        <pt x="433" y="600" on="1"/>
        <pt x="494" y="148" on="1"/>
        <pt x="560" y="800" on="1"/>
        <pt x="677" y="800" on="1"/>
        <pt x="579" y="0" on="1"/>
        <pt x="417" y="0" on="1"/>
        <pt x="351" y="482" on="1"/>
        <pt x="283" y="0" on="1"/>
        <pt x="121" y="0" on="1"/>
        <pt x="23" y="800" on="1"/>
        <pt x="145" y="800" on="1"/>
      </contour>
    </TTGlyph>
    <TTGlyph name="X" xMin="51" yMin="0" xMax="649" yMax="800">
      <contour>
        <pt x="350" y="444" on="1"/>
        <pt x="523" y="800" on="1"/>
        <pt x="649" y="800" on="1"/>
        <pt x="444" y="386" on="1"/>
        <pt x="635" y="0" on="1"/>
        <pt x="501" y="0" on="1"/>
        <pt x="350" y="326" on="1"/>
        <pt x="194" y="0" on="1"/>
        <pt x="65" y="0" on="1"/>
        <pt x="257" y="386" on="1"/>
        <pt x="51" y="800" on="1"/>
        <pt x="182" y="800" on="1"/>
      </contour>
    </TTGlyph>
    <TTGlyph name="Y" xMin="41" yMin="0" xMax="659" yMax="800">
      <contour>
        <pt x="350" y="459" on="1"/>
        <pt x="532" y="800" on="1"/>
        <pt x="659" y="800" on="1"/>
        <pt x="407" y="343" on="1"/>
        <pt x="407" y="0" on="1"/>
        <pt x="293" y="0" on="1"/>
        <pt x="293" y="343" on="1"/>
        <pt x="41" y="800" on="1"/>
        <pt x="170" y="800" on="1"/>
      </contour>
    </TTGlyph>
    <TTGlyph name="Z" xMin="103" yMin="0" xMax="597" yMax="800">
      <contour>
        <pt x="103" y="195" on="1"/>
        <pt x="526" y="690" on="1"/>
        <pt x="103" y="690" on="1"/>
        <pt x="103" y="800" on="1"/>
        <pt x="597" y="800" on="1"/>
        <pt x="597" y="605" on="1"/>
        <pt x="174" y="110" on="1"/>
        <pt x="597" y="110" on="1"/>
        <pt x="597" y="0" on="1"/>
        <pt x="103" y="0" on="1"/>
      </contour>
    </TTGlyph>
    <TTGlyph name="_part.multiply" xMin="112" yMin="112" xMax="588" yMax="588">
      <contour>
        <pt x="112" y="522" on="1"/>
        <pt x="178" y="588" on="1"/>
        <pt x="588" y="178" on="1"/>
        <pt x="522" y="112" on="1"/>
      </contour>
    </TTGlyph>
    <TTGlyph name="a" xMin="70" yMin="-16" xMax="575" yMax="616">
      <contour>
        <pt x="81" y="497" on="0"/>
        <pt x="224" y="616" on="0"/>
        <pt x="338" y="616" on="1"/>
        <pt x="452" y="616" on="0"/>
        <pt x="575" y="509" on="0"/>
        <pt x="575" y="410" on="1"/>
        <pt x="575" y="0" on="1"/>
        <pt x="465" y="0" on="1"/>
        <pt x="465" y="71" on="1"/>
        <pt x="435" y="71" on="1"/>
        <pt x="420" y="29" on="0"/>
        <pt x="341" y="-16" on="0"/>
        <pt x="284" y="-16" on="1"/>
        <pt x="200" y="-16" on="0"/>
        <pt x="102" y="77" on="0"/>
        <pt x="102" y="157" on="1"/>
        <pt x="102" y="232" on="0"/>
        <pt x="197" y="328" on="0"/>
        <pt x="286" y="344" on="1"/>
        <pt x="465" y="373" on="1"/>
        <pt x="465" y="390" on="1"/>
        <pt x="465" y="451" on="0"/>
        <pt x="401" y="513" on="0"/>
        <pt x="338" y="513" on="1"/>
        <pt x="271" y="513" on="0"/>
        <pt x="190" y="451" on="0"/>
        <pt x="183" y="393" on="1"/>
        <pt x="70" y="393" on="1"/>
      </contour>
      <contour>
        <pt x="215" y="124" on="0"/>
        <pt x="263" y="84" on="0"/>
        <pt x="310" y="84" on="1"/>
        <pt x="353" y="84" on="0"/>
        <pt x="424" y="128" on="0"/>
        <pt x="465" y="203" on="0"/>
        <pt x="465" y="248" on="1"/>
        <pt x="465" y="274" on="1"/>
        <pt x="303" y="247" on="1"/>
        <pt x="260" y="240" on="0"/>
        <pt x="215" y="197" on="0"/>
        <pt x="215" y="162" on="1"/>
      </contour>
    </TTGlyph>
    <TTGlyph name="ampersand" xMin="83" yMin="-24" xMax="617" yMax="816">
      <contour>
        <pt x="83" y="258" on="0"/>
        <pt x="124" y="347" on="0"/>
        <pt x="185" y="412" on="0"/>
        <pt x="231" y="448" on="1"/>
        <pt x="187" y="501" on="0"/>
        <pt x="148" y="591" on="0"/>
        <pt x="148" y="635" on="1"/>
        <pt x="148" y="720" on="0"/>
        <pt x="238" y="816" on="0"/>
        <pt x="317" y="816" on="1"/>
        <pt x="395" y="816" on="0"/>
        <pt x="485" y="720" on="0"/>
        <pt x="485" y="637" on="1"/>
        <pt x="485" y="574" on="0"/>
        <pt x="427" y="480" on="0"/>
        <pt x="374" y="434" on="1"/>
        <pt x="479" y="305" on="1"/>
        <pt x="488" y="350" on="0"/>
        <pt x="491" y="404" on="1"/>
        <pt x="600" y="404" on="1"/>
        <pt x="590" y="289" on="0"/>
        <pt x="561" y="205" on="1"/>
        <pt x="617" y="136" on="1"/>
        <pt x="617" y="-24" on="1"/>
        <pt x="513" y="103" on="1"/>
        <pt x="436" y="-16" on="0"/>
        <pt x="298" y="-16" on="1"/>
        <pt x="234" y="-16" on="0"/>
        <pt x="137" y="38" on="0"/>
        <pt x="83" y="136" on="0"/>
        <pt x="83" y="200" on="1"/>
      </contour>
      <contour>
        <pt x="199" y="154" on="0"/>
        <pt x="255" y="94" on="0"/>
        <pt x="301" y="94" on="1"/>
        <pt x="394" y="94" on="0"/>
        <pt x="442" y="189" on="1"/>
        <pt x="296" y="369" on="1"/>
        <pt x="249" y="329" on="0"/>
        <pt x="199" y="252" on="0"/>
        <pt x="199" y="203" on="1"/>
      </contour>
      <contour>
        <pt x="261" y="601" on="0"/>
        <pt x="280" y="550" on="0"/>
        <pt x="301" y="524" on="1"/>
        <pt x="310" y="513" on="1"/>
        <pt x="340" y="541" on="0"/>
        <pt x="372" y="598" on="0"/>
        <pt x="372" y="633" on="1"/>
        <pt x="372" y="667" on="0"/>
        <pt x="342" y="706" on="0"/>
        <pt x="317" y="706" on="1"/>
        <pt x="291" y="706" on="0"/>
        <pt x="261" y="667" on="0"/>
        <pt x="261" y="632" on="1"/>
      </contour>
    </TTGlyph>
    <TTGlyph name="approxequal" xMin="80" yMin="112" xMax="620" yMax="588">
      <component glyphName="asciitilde" x="0" y="126" flags="0x4"/>
      <component glyphName="asciitilde" x="0" y="-126" flags="0x4"/>
    </TTGlyph>
    <TTGlyph name="approxequal.case" xMin="80" yMin="162" xMax="620" yMax="638">
      <component glyphName="approxequal" x="0" y="50" flags="0x4"/>
    </TTGlyph>
    <TTGlyph name="asciicircum" xMin="115" yMin="513" xMax="585" yMax="816">
      <contour>
        <pt x="283" y="816" on="1"/>
        <pt x="417" y="816" on="1"/>
        <pt x="585" y="513" on="1"/>
        <pt x="477" y="513" on="1"/>
        <pt x="350" y="750" on="1"/>
        <pt x="223" y="513" on="1"/>
        <pt x="115" y="513" on="1"/>
      </contour>
    </TTGlyph>
    <TTGlyph name="asciitilde" xMin="80" yMin="238" xMax="620" yMax="462">
      <contour>
        <pt x="421" y="238" on="0"/>
        <pt x="354" y="278" on="0"/>
        <pt x="316" y="315" on="1"/>
        <pt x="289" y="341" on="0"/>
        <pt x="252" y="366" on="0"/>
        <pt x="230" y="366" on="1"/>
        <pt x="207" y="366" on="0"/>
        <pt x="177" y="326" on="0"/>
        <pt x="173" y="289" on="1"/>
        <pt x="80" y="289" on="1"/>
        <pt x="88" y="371" on="0"/>
        <pt x="168" y="462" on="0"/>
        <pt x="231" y="462" on="1"/>
        <pt x="279" y="462" on="0"/>
        <pt x="346" y="422" on="0"/>
        <pt x="384" y="385" on="1"/>
        <pt x="411" y="359" on="0"/>
        <pt x="448" y="334" on="0"/>
        <pt x="470" y="334" on="1"/>
        <pt x="493" y="334" on="0"/>
        <pt x="523" y="374" on="0"/>
        <pt x="527" y="411" on="1"/>
        <pt x="620" y="411" on="1"/>
        <pt x="612" y="329" on="0"/>
        <pt x="532" y="238" on="0"/>
        <pt x="469" y="238" on="1"/>
      </contour>
    </TTGlyph>
    <TTGlyph name="asciitilde.case" xMin="80" yMin="288" xMax="620" yMax="512">
      <component glyphName="asciitilde" x="0" y="50" flags="0x4"/>
    </TTGlyph>
    <TTGlyph name="asterisk" xMin="103" yMin="345" xMax="597" yMax="816">
      <contour>
        <pt x="409" y="816" on="1"/>
        <pt x="393" y="633" on="1"/>
        <pt x="561" y="705" on="1"/>
        <pt x="597" y="593" on="1"/>
        <pt x="419" y="552" on="1"/>
        <pt x="539" y="414" on="1"/>
        <pt x="444" y="345" on="1"/>
        <pt x="350" y="502" on="1"/>
        <pt x="256" y="345" on="1"/>
        <pt x="161" y="414" on="1"/>
        <pt x="281" y="552" on="1"/>
        <pt x="103" y="593" on="1"/>
        <pt x="139" y="705" on="1"/>
        <pt x="307" y="633" on="1"/>
        <pt x="291" y="816" on="1"/>
      </contour>
    </TTGlyph>
    <TTGlyph name="at" xMin="60" yMin="-134" xMax="626" yMax="816">
      <contour>
        <pt x="60" y="-134" on="0"/>
        <pt x="60" y="340" on="1"/>
        <pt x="60" y="816" on="0"/>
        <pt x="374" y="816" on="1"/>
        <pt x="626" y="816" on="0"/>
        <pt x="626" y="516" on="1"/>
        <pt x="626" y="111" on="1"/>
        <pt x="548" y="111" on="1"/>
        <pt x="548" y="168" on="1"/>
        <pt x="518" y="168" on="1"/>
        <pt x="502" y="95" on="0"/>
        <pt x="413" y="95" on="1"/>
        <pt x="261" y="95" on="0"/>
        <pt x="261" y="340" on="1"/>
        <pt x="261" y="585" on="0"/>
        <pt x="413" y="585" on="1"/>
        <pt x="492" y="585" on="0"/>
        <pt x="508" y="512" on="1"/>
        <pt x="538" y="512" on="1"/>
        <pt x="538" y="516" on="1"/>
        <pt x="538" y="730" on="0"/>
        <pt x="374" y="730" on="1"/>
        <pt x="150" y="730" on="0"/>
        <pt x="150" y="340" on="1"/>
        <pt x="150" y="-50" on="0"/>
        <pt x="375" y="-50" on="1"/>
        <pt x="469" y="-50" on="0"/>
        <pt x="518" y="-17" on="1"/>
        <pt x="518" y="-99" on="1"/>
        <pt x="466" y="-134" on="0"/>
        <pt x="375" y="-134" on="1"/>
      </contour>
      <contour>
        <pt x="351" y="183" on="0"/>
        <pt x="447" y="183" on="1"/>
        <pt x="542" y="183" on="0"/>
        <pt x="542" y="340" on="1"/>
        <pt x="542" y="497" on="0"/>
        <pt x="447" y="497" on="1"/>
        <pt x="351" y="497" on="0"/>
        <pt x="351" y="340" on="1"/>
      </contour>
    </TTGlyph>
    <TTGlyph name="b" xMin="105" yMin="-16" xMax="637" yMax="848">
      <contour>
        <pt x="338" y="-16" on="0"/>
        <pt x="257" y="36" on="0"/>
        <pt x="245" y="85" on="1"/>
        <pt x="215" y="85" on="1"/>
        <pt x="215" y="0" on="1"/>
        <pt x="105" y="0" on="1"/>
        <pt x="105" y="848" on="1"/>
        <pt x="215" y="848" on="1"/>
        <pt x="215" y="515" on="1"/>
        <pt x="245" y="515" on="1"/>
        <pt x="257" y="564" on="0"/>
        <pt x="338" y="616" on="0"/>
        <pt x="401" y="616" on="1"/>
        <pt x="472" y="616" on="0"/>
        <pt x="579" y="539" on="0"/>
        <pt x="637" y="396" on="0"/>
        <pt x="637" y="300" on="1"/>
        <pt x="637" y="204" on="0"/>
        <pt x="579" y="61" on="0"/>
        <pt x="472" y="-16" on="0"/>
        <pt x="401" y="-16" on="1"/>
      </contour>
      <contour>
        <pt x="209" y="198" on="0"/>
        <pt x="293" y="85" on="0"/>
        <pt x="367" y="85" on="1"/>
        <pt x="442" y="85" on="0"/>
        <pt x="525" y="198" on="0"/>
        <pt x="525" y="300" on="1"/>
        <pt x="525" y="402" on="0"/>
        <pt x="442" y="515" on="0"/>
        <pt x="367" y="515" on="1"/>
        <pt x="293" y="515" on="0"/>
        <pt x="209" y="402" on="0"/>
        <pt x="209" y="300" on="1"/>
      </contour>
    </TTGlyph>
    <TTGlyph name="backslash" xMin="122" yMin="-170" xMax="578" yMax="848">
      <contour>
        <pt x="230" y="848" on="1"/>
        <pt x="578" y="-170" on="1"/>
        <pt x="470" y="-170" on="1"/>
        <pt x="122" y="848" on="1"/>
      </contour>
    </TTGlyph>
    <TTGlyph name="bar" xMin="303" yMin="-60" xMax="397" yMax="860">
      <contour>
        <pt x="397" y="-60" on="1"/>
        <pt x="303" y="-60" on="1"/>
        <pt x="303" y="860" on="1"/>
        <pt x="397" y="860" on="1"/>
      </contour>
    </TTGlyph>
    <TTGlyph name="braceleft" xMin="243" yMin="-160" xMax="542" yMax="920">
      <contour>
        <pt x="484" y="819" on="0"/>
        <pt x="417" y="764" on="0"/>
        <pt x="417" y="721" on="1"/>
        <pt x="417" y="689" on="0"/>
        <pt x="427" y="627" on="1"/>
        <pt x="437" y="563" on="0"/>
        <pt x="437" y="532" on="1"/>
        <pt x="437" y="466" on="0"/>
        <pt x="376" y="395" on="0"/>
        <pt x="313" y="387" on="1"/>
        <pt x="313" y="373" on="1"/>
        <pt x="376" y="365" on="0"/>
        <pt x="437" y="294" on="0"/>
        <pt x="437" y="228" on="1"/>
        <pt x="437" y="196" on="0"/>
        <pt x="427" y="134" on="1"/>
        <pt x="417" y="70" on="0"/>
        <pt x="417" y="39" on="1"/>
        <pt x="417" y="-4" on="0"/>
        <pt x="484" y="-59" on="0"/>
        <pt x="542" y="-64" on="1"/>
        <pt x="542" y="-160" on="1"/>
        <pt x="475" y="-156" on="0"/>
        <pt x="373" y="-100" on="0"/>
        <pt x="317" y="-8" on="0"/>
        <pt x="317" y="49" on="1"/>
        <pt x="317" y="74" on="0"/>
        <pt x="327" y="126" on="1"/>
        <pt x="337" y="178" on="0"/>
        <pt x="337" y="203" on="1"/>
        <pt x="337" y="266" on="0"/>
        <pt x="292" y="323" on="0"/>
        <pt x="243" y="322" on="1"/>
        <pt x="243" y="438" on="1"/>
        <pt x="292" y="437" on="0"/>
        <pt x="337" y="494" on="0"/>
        <pt x="337" y="557" on="1"/>
        <pt x="337" y="582" on="0"/>
        <pt x="327" y="634" on="1"/>
        <pt x="317" y="686" on="0"/>
        <pt x="317" y="711" on="1"/>
        <pt x="317" y="768" on="0"/>
        <pt x="373" y="860" on="0"/>
        <pt x="475" y="916" on="0"/>
        <pt x="542" y="920" on="1"/>
        <pt x="542" y="824" on="1"/>
      </contour>
    </TTGlyph>
    <TTGlyph name="braceright" xMin="158" yMin="-160" xMax="457" yMax="920">
      <contour>
        <pt x="225" y="916" on="0"/>
        <pt x="327" y="860" on="0"/>
        <pt x="383" y="768" on="0"/>
        <pt x="383" y="711" on="1"/>
        <pt x="383" y="686" on="0"/>
        <pt x="373" y="634" on="1"/>
        <pt x="363" y="582" on="0"/>
        <pt x="363" y="557" on="1"/>
        <pt x="363" y="494" on="0"/>
        <pt x="408" y="437" on="0"/>
        <pt x="457" y="438" on="1"/>
        <pt x="457" y="322" on="1"/>
        <pt x="408" y="323" on="0"/>
        <pt x="363" y="266" on="0"/>
        <pt x="363" y="203" on="1"/>
        <pt x="363" y="178" on="0"/>
        <pt x="373" y="126" on="1"/>
        <pt x="383" y="74" on="0"/>
        <pt x="383" y="49" on="1"/>
        <pt x="383" y="-8" on="0"/>
        <pt x="327" y="-100" on="0"/>
        <pt x="225" y="-156" on="0"/>
        <pt x="158" y="-160" on="1"/>
        <pt x="158" y="-64" on="1"/>
        <pt x="216" y="-59" on="0"/>
        <pt x="283" y="-4" on="0"/>
        <pt x="283" y="39" on="1"/>
        <pt x="283" y="70" on="0"/>
        <pt x="273" y="134" on="1"/>
        <pt x="263" y="196" on="0"/>
        <pt x="263" y="228" on="1"/>
        <pt x="263" y="294" on="0"/>
        <pt x="324" y="365" on="0"/>
        <pt x="387" y="373" on="1"/>
        <pt x="387" y="387" on="1"/>
        <pt x="324" y="395" on="0"/>
        <pt x="263" y="466" on="0"/>
        <pt x="263" y="532" on="1"/>
        <pt x="263" y="563" on="0"/>
        <pt x="273" y="627" on="1"/>
        <pt x="283" y="689" on="0"/>
        <pt x="283" y="721" on="1"/>
        <pt x="283" y="764" on="0"/>
        <pt x="216" y="819" on="0"/>
        <pt x="158" y="824" on="1"/>
        <pt x="158" y="920" on="1"/>
      </contour>
    </TTGlyph>
    <TTGlyph name="bracketleft" xMin="305" yMin="-150" xMax="542" yMax="910">
      <contour>
        <pt x="542" y="816" on="1"/>
        <pt x="403" y="816" on="1"/>
        <pt x="403" y="-56" on="1"/>
        <pt x="542" y="-56" on="1"/>
        <pt x="542" y="-150" on="1"/>
        <pt x="305" y="-150" on="1"/>
        <pt x="305" y="910" on="1"/>
        <pt x="542" y="910" on="1"/>
      </contour>
    </TTGlyph>
    <TTGlyph name="bracketright" xMin="158" yMin="-150" xMax="395" yMax="910">
      <contour>
        <pt x="395" y="910" on="1"/>
        <pt x="395" y="-150" on="1"/>
        <pt x="158" y="-150" on="1"/>
        <pt x="158" y="-56" on="1"/>
        <pt x="297" y="-56" on="1"/>
        <pt x="297" y="816" on="1"/>
        <pt x="158" y="816" on="1"/>
        <pt x="158" y="910" on="1"/>
      </contour>
    </TTGlyph>
    <TTGlyph name="bullet" xMin="158" yMin="158" xMax="542" yMax="542">
      <contour>
        <pt x="257" y="158" on="0"/>
        <pt x="158" y="257" on="0"/>
        <pt x="158" y="350" on="1"/>
        <pt x="158" y="443" on="0"/>
        <pt x="257" y="542" on="0"/>
        <pt x="350" y="542" on="1"/>
        <pt x="443" y="542" on="0"/>
        <pt x="542" y="443" on="0"/>
        <pt x="542" y="350" on="1"/>
        <pt x="542" y="257" on="0"/>
        <pt x="443" y="158" on="0"/>
        <pt x="350" y="158" on="1"/>
      </contour>
    </TTGlyph>
    <TTGlyph name="c" xMin="96" yMin="-16" xMax="627" yMax="616">
      <contour>
        <pt x="283" y="-16" on="0"/>
        <pt x="162" y="60" on="0"/>
        <pt x="96" y="202" on="0"/>
        <pt x="96" y="297" on="1"/>
        <pt x="96" y="394" on="0"/>
        <pt x="164" y="538" on="0"/>
        <pt x="289" y="616" on="0"/>
        <pt x="372" y="616" on="1"/>
        <pt x="443" y="616" on="0"/>
        <pt x="555" y="555" on="0"/>
        <pt x="622" y="443" on="0"/>
        <pt x="627" y="368" on="1"/>
        <pt x="521" y="368" on="1"/>
        <pt x="513" y="436" on="0"/>
        <pt x="433" y="513" on="0"/>
        <pt x="369" y="513" on="1"/>
        <pt x="291" y="513" on="0"/>
        <pt x="205" y="399" on="0"/>
        <pt x="205" y="297" on="1"/>
        <pt x="205" y="197" on="0"/>
        <pt x="289" y="87" on="0"/>
        <pt x="364" y="87" on="1"/>
        <pt x="423" y="87" on="0"/>
        <pt x="499" y="154" on="0"/>
        <pt x="507" y="214" on="1"/>
        <pt x="613" y="214" on="1"/>
        <pt x="604" y="109" on="0"/>
        <pt x="468" y="-16" on="0"/>
        <pt x="364" y="-16" on="1"/>
      </contour>
    </TTGlyph>
    <TTGlyph name="cent" xMin="96" yMin="-100" xMax="627" yMax="700">
      <contour>
        <pt x="323" y="-13" on="1"/>
        <pt x="218" y="1" on="0"/>
        <pt x="96" y="166" on="0"/>
        <pt x="96" y="297" on="1"/>
        <pt x="96" y="428" on="0"/>
        <pt x="218" y="595" on="0"/>
        <pt x="323" y="612" on="1"/>
        <pt x="323" y="700" on="1"/>
        <pt x="403" y="700" on="1"/>
        <pt x="403" y="614" on="1"/>
        <pt x="499" y="604" on="0"/>
        <pt x="620" y="473" on="0"/>
        <pt x="627" y="368" on="1"/>
        <pt x="521" y="368" on="1"/>
        <pt x="514" y="426" on="0"/>
        <pt x="453" y="500" on="0"/>
        <pt x="403" y="510" on="1"/>
        <pt x="403" y="91" on="1"/>
        <pt x="446" y="101" on="0"/>
        <pt x="500" y="165" on="0"/>
        <pt x="507" y="214" on="1"/>
        <pt x="613" y="214" on="1"/>
        <pt x="605" y="119" on="0"/>
        <pt x="492" y="-2" on="0"/>
        <pt x="403" y="-14" on="1"/>
        <pt x="403" y="-100" on="1"/>
        <pt x="323" y="-100" on="1"/>
      </contour>
      <contour>
        <pt x="205" y="212" on="0"/>
        <pt x="266" y="106" on="0"/>
        <pt x="323" y="92" on="1"/>
        <pt x="323" y="507" on="1"/>
        <pt x="267" y="491" on="0"/>
        <pt x="205" y="382" on="0"/>
        <pt x="205" y="297" on="1"/>
      </contour>
    </TTGlyph>
    <TTGlyph name="cent.bold" xMin="96" yMin="-100" xMax="627" yMax="700">
      <contour>
        <pt x="403" y="700" on="1"/>
        <pt x="403" y="614" on="1"/>
        <pt x="499" y="604" on="0"/>
        <pt x="620" y="473" on="0"/>
        <pt x="627" y="368" on="1"/>
        <pt x="521" y="368" on="1"/>
        <pt x="513" y="436" on="0"/>
        <pt x="433" y="513" on="0"/>
        <pt x="369" y="513" on="1"/>
        <pt x="291" y="513" on="0"/>
        <pt x="205" y="399" on="0"/>
        <pt x="205" y="297" on="1"/>
        <pt x="205" y="197" on="0"/>
        <pt x="289" y="87" on="0"/>
        <pt x="364" y="87" on="1"/>
        <pt x="423" y="87" on="0"/>
        <pt x="499" y="154" on="0"/>
        <pt x="507" y="214" on="1"/>
        <pt x="613" y="214" on="1"/>
        <pt x="605" y="119" on="0"/>
        <pt x="492" y="-2" on="0"/>
        <pt x="403" y="-14" on="1"/>
        <pt x="403" y="-100" on="1"/>
        <pt x="323" y="-100" on="1"/>
        <pt x="323" y="-13" on="1"/>
        <pt x="218" y="1" on="0"/>
        <pt x="96" y="166" on="0"/>
        <pt x="96" y="297" on="1"/>
        <pt x="96" y="428" on="0"/>
        <pt x="218" y="595" on="0"/>
        <pt x="323" y="612" on="1"/>
        <pt x="323" y="700" on="1"/>
      </contour>
    </TTGlyph>
    <TTGlyph name="colon" xMin="258" yMin="-8" xMax="442" yMax="608">
      <component glyphName="period" x="0" y="0" flags="0x0"/>
      <component glyphName="period" x="0" y="425" flags="0x4"/>
    </TTGlyph>
    <TTGlyph name="colon.case" xMin="258" yMin="92" xMax="442" yMax="708">
      <component glyphName="colon" x="0" y="100" flags="0x4"/>
    </TTGlyph>
    <TTGlyph name="comma" xMin="246" yMin="-180" xMax="452" yMax="183">
      <contour>
        <pt x="306" y="-8" on="0"/>
        <pt x="258" y="42" on="0"/>
        <pt x="258" y="88" on="1"/>
        <pt x="258" y="134" on="0"/>
        <pt x="306" y="183" on="0"/>
        <pt x="350" y="183" on="1"/>
        <pt x="402" y="183" on="0"/>
        <pt x="452" y="123" on="0"/>
        <pt x="452" y="61" on="1"/>
        <pt x="452" y="-15" on="0"/>
        <pt x="421" y="-133" on="0"/>
        <pt x="388" y="-180" on="1"/>
        <pt x="246" y="-180" on="1"/>
        <pt x="303" y="-139" on="0"/>
        <pt x="367" y="-54" on="0"/>
        <pt x="377" y="-5" on="1"/>
        <pt x="365" y="-8" on="0"/>
        <pt x="350" y="-8" on="1"/>
      </contour>
    </TTGlyph>
    <TTGlyph name="copyright" xMin="58" yMin="93" xMax="642" yMax="707">
      <contour>
        <pt x="268" y="93" on="0"/>
        <pt x="135" y="173" on="0"/>
        <pt x="58" y="314" on="0"/>
        <pt x="58" y="400" on="1"/>
        <pt x="58" y="486" on="0"/>
        <pt x="135" y="627" on="0"/>
        <pt x="268" y="707" on="0"/>
        <pt x="350" y="707" on="1"/>
        <pt x="432" y="707" on="0"/>
        <pt x="565" y="627" on="0"/>
        <pt x="642" y="486" on="0"/>
        <pt x="642" y="400" on="1"/>
        <pt x="642" y="314" on="0"/>
        <pt x="565" y="173" on="0"/>
        <pt x="432" y="93" on="0"/>
        <pt x="350" y="93" on="1"/>
      </contour>
      <contour>
        <pt x="125" y="330" on="0"/>
        <pt x="182" y="221" on="0"/>
        <pt x="284" y="160" on="0"/>
        <pt x="350" y="160" on="1"/>
        <pt x="416" y="160" on="0"/>
        <pt x="518" y="221" on="0"/>
        <pt x="575" y="330" on="0"/>
        <pt x="575" y="400" on="1"/>
        <pt x="575" y="470" on="0"/>
        <pt x="518" y="579" on="0"/>
        <pt x="416" y="640" on="0"/>
        <pt x="350" y="640" on="1"/>
        <pt x="284" y="640" on="0"/>
        <pt x="182" y="579" on="0"/>
        <pt x="125" y="470" on="0"/>
        <pt x="125" y="400" on="1"/>
      </contour>
      <contour>
        <pt x="207" y="473" on="0"/>
        <pt x="287" y="562" on="0"/>
        <pt x="353" y="562" on="1"/>
        <pt x="410" y="562" on="0"/>
        <pt x="486" y="490" on="0"/>
        <pt x="494" y="430" on="1"/>
        <pt x="426" y="430" on="1"/>
        <pt x="422" y="461" on="0"/>
        <pt x="382" y="497" on="0"/>
        <pt x="353" y="497" on="1"/>
        <pt x="316" y="497" on="0"/>
        <pt x="273" y="445" on="0"/>
        <pt x="273" y="400" on="1"/>
        <pt x="273" y="357" on="0"/>
        <pt x="317" y="306" on="0"/>
        <pt x="352" y="306" on="1"/>
        <pt x="378" y="306" on="0"/>
        <pt x="412" y="335" on="0"/>
        <pt x="415" y="360" on="1"/>
        <pt x="483" y="360" on="1"/>
        <pt x="479" y="308" on="0"/>
        <pt x="405" y="241" on="0"/>
        <pt x="352" y="241" on="1"/>
        <pt x="288" y="241" on="0"/>
        <pt x="207" y="331" on="0"/>
        <pt x="207" y="400" on="1"/>
      </contour>
    </TTGlyph>
    <TTGlyph name="currency" xMin="95" yMin="95" xMax="605" yMax="605">
      <contour>
        <pt x="285" y="140" on="0"/>
        <pt x="233" y="176" on="1"/>
        <pt x="152" y="95" on="1"/>
        <pt x="95" y="152" on="1"/>
        <pt x="176" y="233" on="1"/>
        <pt x="140" y="285" on="0"/>
        <pt x="140" y="350" on="1"/>
        <pt x="140" y="415" on="0"/>
        <pt x="176" y="467" on="1"/>
        <pt x="95" y="548" on="1"/>
        <pt x="152" y="605" on="1"/>
        <pt x="233" y="524" on="1"/>
        <pt x="285" y="560" on="0"/>
        <pt x="350" y="560" on="1"/>
        <pt x="415" y="560" on="0"/>
        <pt x="467" y="524" on="1"/>
        <pt x="548" y="605" on="1"/>
        <pt x="605" y="548" on="1"/>
        <pt x="524" y="467" on="1"/>
        <pt x="560" y="415" on="0"/>
        <pt x="560" y="350" on="1"/>
        <pt x="560" y="285" on="0"/>
        <pt x="524" y="233" on="1"/>
        <pt x="605" y="152" on="1"/>
        <pt x="548" y="95" on="1"/>
        <pt x="467" y="176" on="1"/>
        <pt x="415" y="140" on="0"/>
        <pt x="350" y="140" on="1"/>
      </contour>
      <contour>
        <pt x="230" y="301" on="0"/>
        <pt x="301" y="230" on="0"/>
        <pt x="350" y="230" on="1"/>
        <pt x="400" y="230" on="0"/>
        <pt x="470" y="301" on="0"/>
        <pt x="470" y="350" on="1"/>
        <pt x="470" y="400" on="0"/>
        <pt x="400" y="470" on="0"/>
        <pt x="350" y="470" on="1"/>
        <pt x="301" y="470" on="0"/>
        <pt x="230" y="400" on="0"/>
        <pt x="230" y="350" on="1"/>
      </contour>
    </TTGlyph>
    <TTGlyph name="d" xMin="63" yMin="-16" xMax="595" yMax="848">
      <contour>
        <pt x="228" y="-16" on="0"/>
        <pt x="121" y="61" on="0"/>
        <pt x="63" y="204" on="0"/>
        <pt x="63" y="300" on="1"/>
        <pt x="63" y="396" on="0"/>
        <pt x="121" y="539" on="0"/>
        <pt x="228" y="616" on="0"/>
        <pt x="299" y="616" on="1"/>
        <pt x="362" y="616" on="0"/>
        <pt x="443" y="564" on="0"/>
        <pt x="455" y="515" on="1"/>
        <pt x="485" y="515" on="1"/>
        <pt x="485" y="848" on="1"/>
        <pt x="595" y="848" on="1"/>
        <pt x="595" y="0" on="1"/>
        <pt x="485" y="0" on="1"/>
        <pt x="485" y="85" on="1"/>
        <pt x="455" y="85" on="1"/>
        <pt x="443" y="36" on="0"/>
        <pt x="362" y="-16" on="0"/>
        <pt x="299" y="-16" on="1"/>
      </contour>
      <contour>
        <pt x="175" y="198" on="0"/>
        <pt x="258" y="85" on="0"/>
        <pt x="333" y="85" on="1"/>
        <pt x="407" y="85" on="0"/>
        <pt x="491" y="198" on="0"/>
        <pt x="491" y="300" on="1"/>
        <pt x="491" y="402" on="0"/>
        <pt x="407" y="515" on="0"/>
        <pt x="333" y="515" on="1"/>
        <pt x="258" y="515" on="0"/>
        <pt x="175" y="402" on="0"/>
        <pt x="175" y="300" on="1"/>
      </contour>
    </TTGlyph>
    <TTGlyph name="divide" xMin="87" yMin="71" xMax="613" yMax="629">
      <component glyphName="minus" x="0" y="0" flags="0x0"/>
      <component glyphName="uni0307" x="266" y="-219" flags="0x4"/>
      <component glyphName="uni0307" x="266" y="-621" flags="0x4"/>
    </TTGlyph>
    <TTGlyph name="divide.case" xMin="87" yMin="121" xMax="613" yMax="679">
      <component glyphName="divide" x="0" y="50" flags="0x4"/>
    </TTGlyph>
    <TTGlyph name="dollar" xMin="85" yMin="-100" xMax="639" yMax="900">
      <contour>
        <pt x="215" y="109" on="0"/>
        <pt x="320" y="96" on="1"/>
        <pt x="320" y="345" on="1"/>
        <pt x="310" y="346" on="1"/>
        <pt x="202" y="361" on="0"/>
        <pt x="95" y="474" on="0"/>
        <pt x="95" y="574" on="1"/>
        <pt x="95" y="675" on="0"/>
        <pt x="215" y="803" on="0"/>
        <pt x="320" y="814" on="1"/>
        <pt x="320" y="900" on="1"/>
        <pt x="400" y="900" on="1"/>
        <pt x="400" y="814" on="1"/>
        <pt x="506" y="805" on="0"/>
        <pt x="629" y="682" on="0"/>
        <pt x="639" y="576" on="1"/>
        <pt x="525" y="576" on="1"/>
        <pt x="512" y="687" on="0"/>
        <pt x="400" y="704" on="1"/>
        <pt x="400" y="452" on="1"/>
        <pt x="403" y="452" on="1"/>
        <pt x="619" y="422" on="0"/>
        <pt x="619" y="224" on="1"/>
        <pt x="619" y="124" on="0"/>
        <pt x="502" y="-3" on="0"/>
        <pt x="400" y="-14" on="1"/>
        <pt x="400" y="-100" on="1"/>
        <pt x="320" y="-100" on="1"/>
        <pt x="320" y="-14" on="1"/>
        <pt x="217" y="-6" on="0"/>
        <pt x="96" y="106" on="0"/>
        <pt x="85" y="204" on="1"/>
        <pt x="201" y="204" on="1"/>
      </contour>
      <contour>
        <pt x="209" y="524" on="0"/>
        <pt x="263" y="469" on="0"/>
        <pt x="320" y="462" on="1"/>
        <pt x="320" y="703" on="1"/>
        <pt x="266" y="693" on="0"/>
        <pt x="209" y="627" on="0"/>
        <pt x="209" y="574" on="1"/>
      </contour>
      <contour>
        <pt x="451" y="107" on="0"/>
        <pt x="505" y="172" on="0"/>
        <pt x="505" y="224" on="1"/>
        <pt x="505" y="272" on="0"/>
        <pt x="454" y="327" on="0"/>
        <pt x="400" y="335" on="1"/>
        <pt x="400" y="98" on="1"/>
      </contour>
    </TTGlyph>
    <TTGlyph name="dollar.bold" xMin="85" yMin="-100" xMax="639" yMax="900">
      <contour>
        <pt x="216" y="94" on="0"/>
        <pt x="359" y="94" on="1"/>
        <pt x="428" y="94" on="0"/>
        <pt x="505" y="162" on="0"/>
        <pt x="505" y="224" on="1"/>
        <pt x="505" y="274" on="0"/>
        <pt x="451" y="329" on="0"/>
        <pt x="393" y="336" on="1"/>
        <pt x="310" y="346" on="1"/>
        <pt x="202" y="361" on="0"/>
        <pt x="95" y="474" on="0"/>
        <pt x="95" y="574" on="1"/>
        <pt x="95" y="675" on="0"/>
        <pt x="215" y="803" on="0"/>
        <pt x="320" y="814" on="1"/>
        <pt x="320" y="900" on="1"/>
        <pt x="400" y="900" on="1"/>
        <pt x="400" y="814" on="1"/>
        <pt x="506" y="805" on="0"/>
        <pt x="629" y="682" on="0"/>
        <pt x="639" y="576" on="1"/>
        <pt x="525" y="576" on="1"/>
        <pt x="509" y="706" on="0"/>
        <pt x="362" y="706" on="1"/>
        <pt x="289" y="706" on="0"/>
        <pt x="209" y="637" on="0"/>
        <pt x="209" y="574" on="1"/>
        <pt x="209" y="524" on="0"/>
        <pt x="263" y="469" on="0"/>
        <pt x="320" y="462" on="1"/>
        <pt x="403" y="452" on="1"/>
        <pt x="619" y="422" on="0"/>
        <pt x="619" y="224" on="1"/>
        <pt x="619" y="124" on="0"/>
        <pt x="502" y="-3" on="0"/>
        <pt x="400" y="-14" on="1"/>
        <pt x="400" y="-100" on="1"/>
        <pt x="320" y="-100" on="1"/>
        <pt x="320" y="-14" on="1"/>
        <pt x="217" y="-6" on="0"/>
        <pt x="96" y="106" on="0"/>
        <pt x="85" y="204" on="1"/>
        <pt x="201" y="204" on="1"/>
      </contour>
    </TTGlyph>
    <TTGlyph name="dotlessi" xMin="145" yMin="0" xMax="618" yMax="600">
      <contour>
        <pt x="437" y="600" on="1"/>
        <pt x="437" y="103" on="1"/>
        <pt x="618" y="103" on="1"/>
        <pt x="618" y="0" on="1"/>
        <pt x="145" y="0" on="1"/>
        <pt x="145" y="103" on="1"/>
        <pt x="327" y="103" on="1"/>
        <pt x="327" y="497" on="1"/>
        <pt x="145" y="497" on="1"/>
        <pt x="145" y="600" on="1"/>
      </contour>
    </TTGlyph>
    <TTGlyph name="e" xMin="96" yMin="-16" xMax="621" yMax="616">
      <contour>
        <pt x="96" y="400" on="0"/>
        <pt x="161" y="540" on="0"/>
        <pt x="281" y="616" on="0"/>
        <pt x="362" y="616" on="1"/>
        <pt x="477" y="616" on="0"/>
        <pt x="605" y="455" on="0"/>
        <pt x="605" y="310" on="1"/>
        <pt x="605" y="292" on="0"/>
        <pt x="603" y="264" on="1"/>
        <pt x="205" y="264" on="1"/>
        <pt x="212" y="176" on="0"/>
        <pt x="294" y="85" on="0"/>
        <pt x="365" y="85" on="1"/>
        <pt x="418" y="85" on="0"/>
        <pt x="493" y="135" on="0"/>
        <pt x="512" y="184" on="1"/>
        <pt x="621" y="184" on="1"/>
        <pt x="596" y="89" on="0"/>
        <pt x="462" y="-16" on="0"/>
        <pt x="365" y="-16" on="1"/>
        <pt x="237" y="-16" on="0"/>
        <pt x="96" y="153" on="0"/>
        <pt x="96" y="305" on="1"/>
      </contour>
      <contour>
        <pt x="500" y="363" on="1"/>
        <pt x="491" y="437" on="0"/>
        <pt x="420" y="515" on="0"/>
        <pt x="362" y="515" on="1"/>
        <pt x="299" y="515" on="0"/>
        <pt x="218" y="436" on="0"/>
        <pt x="207" y="363" on="1"/>
      </contour>
    </TTGlyph>
    <TTGlyph name="eight" xMin="73" yMin="-16" xMax="627" yMax="816">
      <contour>
        <pt x="425" y="453" on="0"/>
        <pt x="511" y="521" on="0"/>
        <pt x="511" y="580" on="1"/>
        <pt x="511" y="639" on="0"/>
        <pt x="425" y="706" on="0"/>
        <pt x="350" y="706" on="1"/>
        <pt x="275" y="706" on="0"/>
        <pt x="189" y="639" on="0"/>
        <pt x="189" y="580" on="1"/>
        <pt x="189" y="521" on="0"/>
        <pt x="275" y="453" on="0"/>
        <pt x="350" y="453" on="1"/>
      </contour>
      <contour>
        <pt x="73" y="282" on="0"/>
        <pt x="151" y="376" on="0"/>
        <pt x="219" y="384" on="1"/>
        <pt x="219" y="414" on="1"/>
        <pt x="151" y="422" on="0"/>
        <pt x="73" y="517" on="0"/>
        <pt x="73" y="591" on="1"/>
        <pt x="73" y="695" on="0"/>
        <pt x="221" y="816" on="0"/>
        <pt x="350" y="816" on="1"/>
        <pt x="479" y="816" on="0"/>
        <pt x="627" y="695" on="0"/>
        <pt x="627" y="591" on="1"/>
        <pt x="627" y="517" on="0"/>
        <pt x="549" y="422" on="0"/>
        <pt x="481" y="414" on="1"/>
        <pt x="481" y="384" on="1"/>
        <pt x="549" y="376" on="0"/>
        <pt x="627" y="282" on="0"/>
        <pt x="627" y="209" on="1"/>
        <pt x="627" y="104" on="0"/>
        <pt x="479" y="-16" on="0"/>
        <pt x="350" y="-16" on="1"/>
        <pt x="221" y="-16" on="0"/>
        <pt x="73" y="104" on="0"/>
        <pt x="73" y="209" on="1"/>
      </contour>
      <contour>
        <pt x="189" y="161" on="0"/>
        <pt x="275" y="94" on="0"/>
        <pt x="350" y="94" on="1"/>
        <pt x="425" y="94" on="0"/>
        <pt x="511" y="161" on="0"/>
        <pt x="511" y="220" on="1"/>
        <pt x="511" y="278" on="0"/>
        <pt x="425" y="345" on="0"/>
        <pt x="350" y="345" on="1"/>
        <pt x="275" y="345" on="0"/>
        <pt x="189" y="278" on="0"/>
        <pt x="189" y="220" on="1"/>
      </contour>
    </TTGlyph>
    <TTGlyph name="ellipsis" xMin="47" yMin="-8" xMax="653" yMax="183">
      <contour>
        <pt x="314" y="-8" on="0"/>
        <pt x="276" y="41" on="0"/>
        <pt x="276" y="88" on="1"/>
        <pt x="276" y="134" on="0"/>
        <pt x="314" y="183" on="0"/>
        <pt x="350" y="183" on="1"/>
        <pt x="386" y="183" on="0"/>
        <pt x="424" y="134" on="0"/>
        <pt x="424" y="88" on="1"/>
        <pt x="424" y="41" on="0"/>
        <pt x="386" y="-8" on="0"/>
        <pt x="350" y="-8" on="1"/>
      </contour>
      <contour>
        <pt x="47" y="134" on="0"/>
        <pt x="85" y="183" on="0"/>
        <pt x="121" y="183" on="1"/>
        <pt x="157" y="183" on="0"/>
        <pt x="195" y="134" on="0"/>
        <pt x="195" y="88" on="1"/>
        <pt x="195" y="41" on="0"/>
        <pt x="157" y="-8" on="0"/>
        <pt x="121" y="-8" on="1"/>
        <pt x="85" y="-8" on="0"/>
        <pt x="47" y="41" on="0"/>
        <pt x="47" y="88" on="1"/>
      </contour>
      <contour>
        <pt x="504" y="134" on="0"/>
        <pt x="543" y="183" on="0"/>
        <pt x="579" y="183" on="1"/>
        <pt x="614" y="183" on="0"/>
        <pt x="653" y="134" on="0"/>
        <pt x="653" y="88" on="1"/>
        <pt x="653" y="42" on="0"/>
        <pt x="614" y="-8" on="0"/>
        <pt x="579" y="-8" on="1"/>
        <pt x="543" y="-8" on="0"/>
        <pt x="504" y="42" on="0"/>
        <pt x="504" y="88" on="1"/>
      </contour>
    </TTGlyph>
    <TTGlyph name="emdash" xMin="40" yMin="300" xMax="660" yMax="400">
      <contour>
        <pt x="660" y="400" on="1"/>
        <pt x="660" y="300" on="1"/>
        <pt x="40" y="300" on="1"/>
        <pt x="40" y="400" on="1"/>
      </contour>
    </TTGlyph>
    <TTGlyph name="emdash.case" xMin="40" yMin="350" xMax="660" yMax="450">
      <component glyphName="emdash" x="0" y="50" flags="0x4"/>
    </TTGlyph>
    <TTGlyph name="endash" xMin="68" yMin="300" xMax="632" yMax="400">
      <contour>
        <pt x="632" y="400" on="1"/>
        <pt x="632" y="300" on="1"/>
        <pt x="68" y="300" on="1"/>
        <pt x="68" y="400" on="1"/>
      </contour>
    </TTGlyph>
    <TTGlyph name="endash.case" xMin="68" yMin="350" xMax="632" yMax="450">
      <component glyphName="endash" x="0" y="50" flags="0x4"/>
    </TTGlyph>
    <TTGlyph name="equal" xMin="90" yMin="163" xMax="610" yMax="537">
      <contour>
        <pt x="90" y="537" on="1"/>
        <pt x="610" y="537" on="1"/>
        <pt x="610" y="437" on="1"/>
        <pt x="90" y="437" on="1"/>
      </contour>
      <contour>
        <pt x="90" y="263" on="1"/>
        <pt x="610" y="263" on="1"/>
        <pt x="610" y="163" on="1"/>
        <pt x="90" y="163" on="1"/>
      </contour>
    </TTGlyph>
    <TTGlyph name="equal.case" xMin="90" yMin="213" xMax="610" yMax="587">
      <component glyphName="equal" x="0" y="50" flags="0x4"/>
    </TTGlyph>
    <TTGlyph name="exclam" xMin="263" yMin="-7" xMax="436" yMax="800">
      <contour>
        <pt x="407" y="800" on="1"/>
        <pt x="407" y="230" on="1"/>
        <pt x="293" y="230" on="1"/>
        <pt x="293" y="800" on="1"/>
      </contour>
      <contour>
        <pt x="263" y="111" on="0"/>
        <pt x="308" y="152" on="0"/>
        <pt x="350" y="152" on="1"/>
        <pt x="391" y="152" on="0"/>
        <pt x="436" y="111" on="0"/>
        <pt x="436" y="73" on="1"/>
        <pt x="436" y="35" on="0"/>
        <pt x="391" y="-7" on="0"/>
        <pt x="350" y="-7" on="1"/>
        <pt x="308" y="-7" on="0"/>
        <pt x="263" y="35" on="0"/>
        <pt x="263" y="73" on="1"/>
      </contour>
    </TTGlyph>
    <TTGlyph name="f" xMin="131" yMin="0" xMax="669" yMax="864">
      <contour>
        <pt x="265" y="0" on="1"/>
        <pt x="265" y="497" on="1"/>
        <pt x="131" y="497" on="1"/>
        <pt x="131" y="600" on="1"/>
        <pt x="265" y="600" on="1"/>
        <pt x="265" y="665" on="1"/>
        <pt x="265" y="760" on="0"/>
        <pt x="370" y="864" on="0"/>
        <pt x="466" y="864" on="1"/>
        <pt x="555" y="864" on="0"/>
        <pt x="662" y="772" on="0"/>
        <pt x="669" y="690" on="1"/>
        <pt x="559" y="690" on="1"/>
        <pt x="550" y="761" on="0"/>
        <pt x="466" y="761" on="1"/>
        <pt x="421" y="761" on="0"/>
        <pt x="375" y="712" on="0"/>
        <pt x="375" y="665" on="1"/>
        <pt x="375" y="600" on="1"/>
        <pt x="603" y="600" on="1"/>
        <pt x="603" y="497" on="1"/>
        <pt x="375" y="497" on="1"/>
        <pt x="375" y="0" on="1"/>
      </contour>
    </TTGlyph>
    <TTGlyph name="five" xMin="86" yMin="-16" xMax="627" yMax="800">
      <contour>
        <pt x="611" y="800" on="1"/>
        <pt x="611" y="690" on="1"/>
        <pt x="231" y="690" on="1"/>
        <pt x="231" y="459" on="1"/>
        <pt x="261" y="459" on="1"/>
        <pt x="270" y="496" on="0"/>
        <pt x="341" y="536" on="0"/>
        <pt x="397" y="536" on="1"/>
        <pt x="506" y="536" on="0"/>
        <pt x="627" y="394" on="0"/>
        <pt x="627" y="265" on="1"/>
        <pt x="627" y="132" on="0"/>
        <pt x="487" y="-16" on="0"/>
        <pt x="360" y="-16" on="1"/>
        <pt x="243" y="-16" on="0"/>
        <pt x="99" y="119" on="0"/>
        <pt x="86" y="240" on="1"/>
        <pt x="209" y="240" on="1"/>
        <pt x="218" y="170" on="0"/>
        <pt x="298" y="94" on="0"/>
        <pt x="360" y="94" on="1"/>
        <pt x="431" y="94" on="0"/>
        <pt x="511" y="184" on="0"/>
        <pt x="511" y="265" on="1"/>
        <pt x="511" y="343" on="0"/>
        <pt x="432" y="430" on="0"/>
        <pt x="361" y="430" on="1"/>
        <pt x="312" y="430" on="0"/>
        <pt x="238" y="386" on="0"/>
        <pt x="221" y="346" on="1"/>
        <pt x="117" y="346" on="1"/>
        <pt x="117" y="800" on="1"/>
      </contour>
    </TTGlyph>
    <TTGlyph name="four" xMin="64" yMin="0" xMax="643" yMax="800">
      <contour>
        <pt x="524" y="340" on="1"/>
        <pt x="643" y="340" on="1"/>
        <pt x="643" y="230" on="1"/>
        <pt x="524" y="230" on="1"/>
        <pt x="524" y="0" on="1"/>
        <pt x="410" y="0" on="1"/>
        <pt x="410" y="230" on="1"/>
        <pt x="64" y="230" on="1"/>
        <pt x="64" y="393" on="1"/>
        <pt x="315" y="800" on="1"/>
        <pt x="524" y="800" on="1"/>
      </contour>
      <contour>
        <pt x="410" y="340" on="1"/>
        <pt x="410" y="747" on="1"/>
        <pt x="156" y="340" on="1"/>
      </contour>
    </TTGlyph>
    <TTGlyph name="g" xMin="77" yMin="-216" xMax="585" yMax="616">
      <contour>
        <pt x="585" y="-54" on="0"/>
        <pt x="523" y="-159" on="0"/>
        <pt x="409" y="-216" on="0"/>
        <pt x="332" y="-216" on="1"/>
        <pt x="223" y="-216" on="0"/>
        <pt x="85" y="-112" on="0"/>
        <pt x="77" y="-23" on="1"/>
        <pt x="195" y="-23" on="1"/>
        <pt x="201" y="-66" on="0"/>
        <pt x="273" y="-113" on="0"/>
        <pt x="332" y="-113" on="1"/>
        <pt x="400" y="-113" on="0"/>
        <pt x="475" y="-44" on="0"/>
        <pt x="475" y="17" on="1"/>
        <pt x="475" y="125" on="1"/>
        <pt x="445" y="125" on="1"/>
        <pt x="433" y="81" on="0"/>
        <pt x="359" y="32" on="0"/>
        <pt x="304" y="32" on="1"/>
        <pt x="236" y="32" on="0"/>
        <pt x="134" y="103" on="0"/>
        <pt x="79" y="235" on="0"/>
        <pt x="79" y="324" on="1"/>
        <pt x="79" y="413" on="0"/>
        <pt x="134" y="545" on="0"/>
        <pt x="236" y="616" on="0"/>
        <pt x="304" y="616" on="1"/>
        <pt x="359" y="616" on="0"/>
        <pt x="433" y="567" on="0"/>
        <pt x="445" y="523" on="1"/>
        <pt x="475" y="523" on="1"/>
        <pt x="475" y="600" on="1"/>
        <pt x="585" y="600" on="1"/>
        <pt x="585" y="17" on="1"/>
      </contour>
      <contour>
        <pt x="190" y="234" on="0"/>
        <pt x="268" y="133" on="0"/>
        <pt x="336" y="133" on="1"/>
        <pt x="405" y="133" on="0"/>
        <pt x="482" y="233" on="0"/>
        <pt x="482" y="324" on="1"/>
        <pt x="482" y="415" on="0"/>
        <pt x="405" y="515" on="0"/>
        <pt x="336" y="515" on="1"/>
        <pt x="268" y="515" on="0"/>
        <pt x="190" y="414" on="0"/>
        <pt x="190" y="324" on="1"/>
      </contour>
    </TTGlyph>
    <TTGlyph name="grave" xMin="188" yMin="572" xMax="512" yMax="848">
      <contour>
        <pt x="332" y="848" on="1"/>
        <pt x="512" y="572" on="1"/>
        <pt x="408" y="572" on="1"/>
        <pt x="188" y="848" on="1"/>
      </contour>
    </TTGlyph>
    <TTGlyph name="greater" xMin="113" yMin="36" xMax="587" yMax="664">
      <contour>
        <pt x="113" y="36" on="1"/>
        <pt x="113" y="149" on="1"/>
        <pt x="520" y="345" on="1"/>
        <pt x="520" y="355" on="1"/>
        <pt x="113" y="551" on="1"/>
        <pt x="113" y="664" on="1"/>
        <pt x="587" y="431" on="1"/>
        <pt x="587" y="269" on="1"/>
      </contour>
    </TTGlyph>
    <TTGlyph name="greater.case" xMin="113" yMin="86" xMax="587" yMax="714">
      <component glyphName="greater" x="0" y="50" flags="0x4"/>
    </TTGlyph>
    <TTGlyph name="guillemotleft" xMin="96" yMin="39" xMax="579" yMax="661">
      <contour>
        <pt x="96" y="270" on="1"/>
        <pt x="96" y="428" on="1"/>
        <pt x="363" y="661" on="1"/>
        <pt x="363" y="522" on="1"/>
        <pt x="159" y="351" on="1"/>
        <pt x="363" y="181" on="1"/>
        <pt x="363" y="39" on="1"/>
      </contour>
      <contour>
        <pt x="353" y="425" on="1"/>
        <pt x="579" y="598" on="1"/>
        <pt x="579" y="470" on="1"/>
        <pt x="415" y="350" on="1"/>
        <pt x="579" y="233" on="1"/>
        <pt x="579" y="102" on="1"/>
        <pt x="353" y="273" on="1"/>
      </contour>
    </TTGlyph>
    <TTGlyph name="guillemotright" xMin="121" yMin="39" xMax="604" yMax="661">
      <contour>
        <pt x="337" y="181" on="1"/>
        <pt x="541" y="351" on="1"/>
        <pt x="337" y="522" on="1"/>
        <pt x="337" y="661" on="1"/>
        <pt x="604" y="428" on="1"/>
        <pt x="604" y="270" on="1"/>
        <pt x="337" y="39" on="1"/>
      </contour>
      <contour>
        <pt x="121" y="233" on="1"/>
        <pt x="285" y="350" on="1"/>
        <pt x="121" y="470" on="1"/>
        <pt x="121" y="598" on="1"/>
        <pt x="347" y="425" on="1"/>
        <pt x="347" y="273" on="1"/>
        <pt x="121" y="102" on="1"/>
      </contour>
    </TTGlyph>
    <TTGlyph name="h" xMin="113" yMin="0" xMax="598" yMax="848">
      <contour>
        <pt x="223" y="848" on="1"/>
        <pt x="223" y="517" on="1"/>
        <pt x="253" y="517" on="1"/>
        <pt x="265" y="564" on="0"/>
        <pt x="343" y="616" on="0"/>
        <pt x="401" y="616" on="1"/>
        <pt x="460" y="616" on="0"/>
        <pt x="549" y="560" on="0"/>
        <pt x="598" y="457" on="0"/>
        <pt x="598" y="389" on="1"/>
        <pt x="598" y="0" on="1"/>
        <pt x="488" y="0" on="1"/>
        <pt x="488" y="359" on="1"/>
        <pt x="488" y="434" on="0"/>
        <pt x="420" y="513" on="0"/>
        <pt x="355" y="513" on="1"/>
        <pt x="291" y="513" on="0"/>
        <pt x="223" y="434" on="0"/>
        <pt x="223" y="359" on="1"/>
        <pt x="223" y="0" on="1"/>
        <pt x="113" y="0" on="1"/>
        <pt x="113" y="848" on="1"/>
      </contour>
    </TTGlyph>
    <TTGlyph name="hyphen" xMin="87" yMin="300" xMax="613" yMax="400">
      <component glyphName="minus" x="0" y="0" flags="0x0"/>
    </TTGlyph>
    <TTGlyph name="hyphen.case" xMin="87" yMin="350" xMax="613" yMax="450">
      <component glyphName="minus.case" x="0" y="0" flags="0x0"/>
    </TTGlyph>
    <TTGlyph name="i" xMin="145" yMin="0" xMax="618" yMax="848">
      <component glyphName="dotlessi" x="0" y="0" flags="0x0"/>
      <component glyphName="uni0307" x="298" y="0" flags="0x0"/>
    </TTGlyph>
    <TTGlyph name="j" xMin="98" yMin="-216" xMax="531" yMax="848">
      <component glyphName="uni0237" x="0" y="0" flags="0x0"/>
      <component glyphName="uni0307" x="363" y="0" flags="0x0"/>
    </TTGlyph>
    <TTGlyph name="k" xMin="147" yMin="0" xMax="658" yMax="848">
      <contour>
        <pt x="257" y="848" on="1"/>
        <pt x="257" y="327" on="1"/>
        <pt x="521" y="600" on="1"/>
        <pt x="658" y="600" on="1"/>
        <pt x="362" y="297" on="1"/>
        <pt x="649" y="0" on="1"/>
        <pt x="505" y="0" on="1"/>
        <pt x="257" y="257" on="1"/>
        <pt x="257" y="0" on="1"/>
        <pt x="147" y="0" on="1"/>
        <pt x="147" y="848" on="1"/>
      </contour>
    </TTGlyph>
    <TTGlyph name="l" xMin="130" yMin="0" xMax="603" yMax="848">
      <contour>
        <pt x="422" y="848" on="1"/>
        <pt x="422" y="103" on="1"/>
        <pt x="603" y="103" on="1"/>
        <pt x="603" y="0" on="1"/>
        <pt x="130" y="0" on="1"/>
        <pt x="130" y="103" on="1"/>
        <pt x="312" y="103" on="1"/>
        <pt x="312" y="745" on="1"/>
        <pt x="130" y="745" on="1"/>
        <pt x="130" y="848" on="1"/>
      </contour>
    </TTGlyph>
    <TTGlyph name="less" xMin="113" yMin="36" xMax="587" yMax="664">
      <contour>
        <pt x="587" y="664" on="1"/>
        <pt x="587" y="551" on="1"/>
        <pt x="180" y="355" on="1"/>
        <pt x="180" y="345" on="1"/>
        <pt x="587" y="149" on="1"/>
        <pt x="587" y="36" on="1"/>
        <pt x="113" y="269" on="1"/>
        <pt x="113" y="431" on="1"/>
      </contour>
    </TTGlyph>
    <TTGlyph name="less.case" xMin="113" yMin="86" xMax="587" yMax="714">
      <contour>
        <pt x="587" y="714" on="1"/>
        <pt x="587" y="601" on="1"/>
        <pt x="180" y="405" on="1"/>
        <pt x="180" y="395" on="1"/>
        <pt x="587" y="199" on="1"/>
        <pt x="587" y="86" on="1"/>
        <pt x="113" y="319" on="1"/>
        <pt x="113" y="481" on="1"/>
      </contour>
    </TTGlyph>
    <TTGlyph name="m" xMin="76" yMin="0" xMax="628" yMax="616">
      <contour>
        <pt x="186" y="600" on="1"/>
        <pt x="186" y="540" on="1"/>
        <pt x="219" y="540" on="1"/>
        <pt x="233" y="616" on="0"/>
        <pt x="305" y="616" on="1"/>
        <pt x="337" y="616" on="0"/>
        <pt x="384" y="577" on="0"/>
        <pt x="396" y="540" on="1"/>
        <pt x="424" y="540" on="1"/>
        <pt x="441" y="616" on="0"/>
        <pt x="522" y="616" on="1"/>
        <pt x="574" y="616" on="0"/>
        <pt x="628" y="533" on="0"/>
        <pt x="628" y="456" on="1"/>
        <pt x="628" y="0" on="1"/>
        <pt x="518" y="0" on="1"/>
        <pt x="518" y="429" on="1"/>
        <pt x="518" y="470" on="0"/>
        <pt x="491" y="508" on="0"/>
        <pt x="463" y="508" on="1"/>
        <pt x="434" y="508" on="0"/>
        <pt x="407" y="469" on="0"/>
        <pt x="407" y="429" on="1"/>
        <pt x="407" y="0" on="1"/>
        <pt x="297" y="0" on="1"/>
        <pt x="297" y="429" on="1"/>
        <pt x="297" y="469" on="0"/>
        <pt x="270" y="508" on="0"/>
        <pt x="241" y="508" on="1"/>
        <pt x="213" y="508" on="0"/>
        <pt x="186" y="470" on="0"/>
        <pt x="186" y="429" on="1"/>
        <pt x="186" y="0" on="1"/>
        <pt x="76" y="0" on="1"/>
        <pt x="76" y="600" on="1"/>
      </contour>
    </TTGlyph>
    <TTGlyph name="minus" xMin="87" yMin="300" xMax="613" yMax="400">
      <contour>
        <pt x="87" y="400" on="1"/>
        <pt x="613" y="400" on="1"/>
        <pt x="613" y="300" on="1"/>
        <pt x="87" y="300" on="1"/>
      </contour>
    </TTGlyph>
    <TTGlyph name="minus.case" xMin="87" yMin="350" xMax="613" yMax="450">
      <component glyphName="minus" x="0" y="50" flags="0x4"/>
    </TTGlyph>
    <TTGlyph name="multiply" xMin="112" yMin="112" xMax="588" yMax="588">
      <contour>
        <pt x="350" y="284" on="1"/>
        <pt x="178" y="112" on="1"/>
        <pt x="112" y="178" on="1"/>
        <pt x="284" y="350" on="1"/>
        <pt x="112" y="522" on="1"/>
        <pt x="178" y="588" on="1"/>
        <pt x="350" y="416" on="1"/>
        <pt x="522" y="588" on="1"/>
        <pt x="588" y="522" on="1"/>
        <pt x="416" y="350" on="1"/>
        <pt x="588" y="178" on="1"/>
        <pt x="522" y="112" on="1"/>
      </contour>
    </TTGlyph>
    <TTGlyph name="multiply.case" xMin="112" yMin="162" xMax="588" yMax="638">
      <component glyphName="multiply" x="0" y="50" flags="0x4"/>
    </TTGlyph>
    <TTGlyph name="n" xMin="113" yMin="0" xMax="598" yMax="616">
      <contour>
        <pt x="223" y="600" on="1"/>
        <pt x="223" y="517" on="1"/>
        <pt x="253" y="517" on="1"/>
        <pt x="266" y="564" on="0"/>
        <pt x="344" y="616" on="0"/>
        <pt x="402" y="616" on="1"/>
        <pt x="491" y="616" on="0"/>
        <pt x="598" y="492" on="0"/>
        <pt x="598" y="389" on="1"/>
        <pt x="598" y="0" on="1"/>
        <pt x="488" y="0" on="1"/>
        <pt x="488" y="359" on="1"/>
        <pt x="488" y="434" on="0"/>
        <pt x="420" y="513" on="0"/>
        <pt x="356" y="513" on="1"/>
        <pt x="291" y="513" on="0"/>
        <pt x="223" y="434" on="0"/>
        <pt x="223" y="359" on="1"/>
        <pt x="223" y="0" on="1"/>
        <pt x="113" y="0" on="1"/>
        <pt x="113" y="600" on="1"/>
      </contour>
    </TTGlyph>
    <TTGlyph name="nine" xMin="73" yMin="0" xMax="627" yMax="816">
      <contour>
        <pt x="434" y="816" on="0"/>
        <pt x="559" y="749" on="0"/>
        <pt x="627" y="626" on="0"/>
        <pt x="627" y="544" on="1"/>
        <pt x="627" y="480" on="0"/>
        <pt x="585" y="361" on="0"/>
        <pt x="541" y="297" on="1"/>
        <pt x="343" y="0" on="1"/>
        <pt x="206" y="0" on="1"/>
        <pt x="420" y="309" on="1"/>
        <pt x="397" y="326" on="1"/>
        <pt x="384" y="311" on="0"/>
        <pt x="329" y="293" on="0"/>
        <pt x="297" y="293" on="1"/>
        <pt x="233" y="293" on="0"/>
        <pt x="131" y="358" on="0"/>
        <pt x="73" y="472" on="0"/>
        <pt x="73" y="544" on="1"/>
        <pt x="73" y="626" on="0"/>
        <pt x="142" y="749" on="0"/>
        <pt x="268" y="816" on="0"/>
        <pt x="351" y="816" on="1"/>
      </contour>
      <contour>
        <pt x="189" y="471" on="0"/>
        <pt x="277" y="382" on="0"/>
        <pt x="350" y="382" on="1"/>
        <pt x="423" y="382" on="0"/>
        <pt x="511" y="471" on="0"/>
        <pt x="511" y="544" on="1"/>
        <pt x="511" y="617" on="0"/>
        <pt x="423" y="706" on="0"/>
        <pt x="350" y="706" on="1"/>
        <pt x="277" y="706" on="0"/>
        <pt x="189" y="617" on="0"/>
        <pt x="189" y="544" on="1"/>
      </contour>
    </TTGlyph>
    <TTGlyph name="notequal" xMin="90" yMin="10" xMax="610" yMax="690">
      <contour>
        <pt x="90" y="537" on="1"/>
        <pt x="386" y="537" on="1"/>
        <pt x="458" y="690" on="1"/>
        <pt x="560" y="690" on="1"/>
        <pt x="488" y="537" on="1"/>
        <pt x="610" y="537" on="1"/>
        <pt x="610" y="437" on="1"/>
        <pt x="442" y="437" on="1"/>
        <pt x="360" y="263" on="1"/>
        <pt x="610" y="263" on="1"/>
        <pt x="610" y="163" on="1"/>
        <pt x="314" y="163" on="1"/>
        <pt x="242" y="10" on="1"/>
        <pt x="140" y="10" on="1"/>
        <pt x="212" y="163" on="1"/>
        <pt x="90" y="163" on="1"/>
        <pt x="90" y="263" on="1"/>
        <pt x="258" y="263" on="1"/>
        <pt x="340" y="437" on="1"/>
        <pt x="90" y="437" on="1"/>
      </contour>
    </TTGlyph>
    <TTGlyph name="notequal.case" xMin="90" yMin="60" xMax="610" yMax="740">
      <component glyphName="notequal" x="0" y="50" flags="0x4"/>
    </TTGlyph>
    <TTGlyph name="numbersign" xMin="46" yMin="0" xMax="654" yMax="800">
      <contour>
        <pt x="328" y="600" on="1"/>
        <pt x="451" y="600" on="1"/>
        <pt x="490" y="800" on="1"/>
        <pt x="580" y="800" on="1"/>
        <pt x="541" y="600" on="1"/>
        <pt x="654" y="600" on="1"/>
        <pt x="654" y="504" on="1"/>
        <pt x="522" y="504" on="1"/>
        <pt x="481" y="296" on="1"/>
        <pt x="600" y="296" on="1"/>
        <pt x="600" y="200" on="1"/>
        <pt x="462" y="200" on="1"/>
        <pt x="423" y="0" on="1"/>
        <pt x="333" y="0" on="1"/>
        <pt x="372" y="200" on="1"/>
        <pt x="249" y="200" on="1"/>
        <pt x="210" y="0" on="1"/>
        <pt x="120" y="0" on="1"/>
        <pt x="159" y="200" on="1"/>
        <pt x="46" y="200" on="1"/>
        <pt x="46" y="296" on="1"/>
        <pt x="178" y="296" on="1"/>
        <pt x="219" y="504" on="1"/>
        <pt x="100" y="504" on="1"/>
        <pt x="100" y="600" on="1"/>
        <pt x="238" y="600" on="1"/>
        <pt x="277" y="800" on="1"/>
        <pt x="367" y="800" on="1"/>
      </contour>
      <contour>
        <pt x="391" y="296" on="1"/>
        <pt x="432" y="504" on="1"/>
        <pt x="309" y="504" on="1"/>
        <pt x="268" y="296" on="1"/>
      </contour>
    </TTGlyph>
    <TTGlyph name="o" xMin="78" yMin="-16" xMax="622" yMax="616">
      <contour>
        <pt x="268" y="-16" on="0"/>
        <pt x="145" y="62" on="0"/>
        <pt x="78" y="205" on="0"/>
        <pt x="78" y="301" on="1"/>
        <pt x="78" y="397" on="0"/>
        <pt x="145" y="539" on="0"/>
        <pt x="268" y="616" on="0"/>
        <pt x="350" y="616" on="1"/>
        <pt x="432" y="616" on="0"/>
        <pt x="555" y="539" on="0"/>
        <pt x="622" y="397" on="0"/>
        <pt x="622" y="301" on="1"/>
        <pt x="622" y="205" on="0"/>
        <pt x="555" y="62" on="0"/>
        <pt x="432" y="-16" on="0"/>
        <pt x="350" y="-16" on="1"/>
      </contour>
      <contour>
        <pt x="187" y="200" on="0"/>
        <pt x="273" y="87" on="0"/>
        <pt x="350" y="87" on="1"/>
        <pt x="427" y="87" on="0"/>
        <pt x="513" y="200" on="0"/>
        <pt x="513" y="301" on="1"/>
        <pt x="513" y="401" on="0"/>
        <pt x="427" y="513" on="0"/>
        <pt x="350" y="513" on="1"/>
        <pt x="273" y="513" on="0"/>
        <pt x="187" y="401" on="0"/>
        <pt x="187" y="301" on="1"/>
      </contour>
    </TTGlyph>
    <TTGlyph name="one" xMin="103" yMin="0" xMax="650" yMax="800">
      <contour>
        <pt x="444" y="104" on="1"/>
        <pt x="650" y="104" on="1"/>
        <pt x="650" y="0" on="1"/>
        <pt x="103" y="0" on="1"/>
        <pt x="103" y="104" on="1"/>
        <pt x="330" y="104" on="1"/>
        <pt x="330" y="706" on="1"/>
        <pt x="103" y="552" on="1"/>
        <pt x="103" y="687" on="1"/>
        <pt x="281" y="800" on="1"/>
        <pt x="444" y="800" on="1"/>
      </contour>
    </TTGlyph>
    <TTGlyph name="p" xMin="105" yMin="-200" xMax="637" yMax="616">
      <contour>
        <pt x="472" y="616" on="0"/>
        <pt x="579" y="539" on="0"/>
        <pt x="637" y="396" on="0"/>
        <pt x="637" y="300" on="1"/>
        <pt x="637" y="204" on="0"/>
        <pt x="579" y="61" on="0"/>
        <pt x="472" y="-16" on="0"/>
        <pt x="401" y="-16" on="1"/>
        <pt x="338" y="-16" on="0"/>
        <pt x="257" y="36" on="0"/>
        <pt x="245" y="85" on="1"/>
        <pt x="215" y="85" on="1"/>
        <pt x="215" y="-200" on="1"/>
        <pt x="105" y="-200" on="1"/>
        <pt x="105" y="600" on="1"/>
        <pt x="215" y="600" on="1"/>
        <pt x="215" y="515" on="1"/>
        <pt x="245" y="515" on="1"/>
        <pt x="257" y="564" on="0"/>
        <pt x="338" y="616" on="0"/>
        <pt x="401" y="616" on="1"/>
      </contour>
      <contour>
        <pt x="209" y="198" on="0"/>
        <pt x="293" y="85" on="0"/>
        <pt x="367" y="85" on="1"/>
        <pt x="442" y="85" on="0"/>
        <pt x="525" y="198" on="0"/>
        <pt x="525" y="300" on="1"/>
        <pt x="525" y="402" on="0"/>
        <pt x="442" y="515" on="0"/>
        <pt x="367" y="515" on="1"/>
        <pt x="293" y="515" on="0"/>
        <pt x="209" y="402" on="0"/>
        <pt x="209" y="300" on="1"/>
      </contour>
    </TTGlyph>
    <TTGlyph name="parenleft" xMin="243" yMin="-160" xMax="556" yMax="920">
      <contour>
        <pt x="458" y="765" on="0"/>
        <pt x="353" y="537" on="0"/>
        <pt x="353" y="380" on="1"/>
        <pt x="353" y="223" on="0"/>
        <pt x="458" y="-5" on="0"/>
        <pt x="556" y="-60" on="1"/>
        <pt x="556" y="-160" on="1"/>
        <pt x="460" y="-117" on="0"/>
        <pt x="319" y="43" on="0"/>
        <pt x="243" y="257" on="0"/>
        <pt x="243" y="380" on="1"/>
        <pt x="243" y="503" on="0"/>
        <pt x="319" y="717" on="0"/>
        <pt x="460" y="877" on="0"/>
        <pt x="556" y="920" on="1"/>
        <pt x="556" y="820" on="1"/>
      </contour>
    </TTGlyph>
    <TTGlyph name="parenright" xMin="144" yMin="-160" xMax="457" yMax="920">
      <contour>
        <pt x="240" y="877" on="0"/>
        <pt x="381" y="717" on="0"/>
        <pt x="457" y="503" on="0"/>
        <pt x="457" y="380" on="1"/>
        <pt x="457" y="257" on="0"/>
        <pt x="381" y="43" on="0"/>
        <pt x="240" y="-117" on="0"/>
        <pt x="144" y="-160" on="1"/>
        <pt x="144" y="-60" on="1"/>
        <pt x="242" y="-5" on="0"/>
        <pt x="347" y="223" on="0"/>
        <pt x="347" y="380" on="1"/>
        <pt x="347" y="537" on="0"/>
        <pt x="242" y="765" on="0"/>
        <pt x="144" y="820" on="1"/>
        <pt x="144" y="920" on="1"/>
      </contour>
    </TTGlyph>
    <TTGlyph name="percent" xMin="45" yMin="-16" xMax="655" yMax="816">
      <contour>
        <pt x="45" y="238" on="1"/>
        <pt x="655" y="660" on="1"/>
        <pt x="655" y="562" on="1"/>
        <pt x="45" y="140" on="1"/>
      </contour>
      <contour>
        <pt x="58" y="724" on="0"/>
        <pt x="136" y="816" on="0"/>
        <pt x="209" y="816" on="1"/>
        <pt x="282" y="816" on="0"/>
        <pt x="360" y="724" on="0"/>
        <pt x="360" y="638" on="1"/>
        <pt x="360" y="552" on="0"/>
        <pt x="282" y="460" on="0"/>
        <pt x="209" y="460" on="1"/>
        <pt x="136" y="460" on="0"/>
        <pt x="58" y="552" on="0"/>
        <pt x="58" y="638" on="1"/>
      </contour>
      <contour>
        <pt x="156" y="598" on="0"/>
        <pt x="183" y="556" on="0"/>
        <pt x="209" y="556" on="1"/>
        <pt x="235" y="556" on="0"/>
        <pt x="262" y="598" on="0"/>
        <pt x="262" y="638" on="1"/>
        <pt x="262" y="678" on="0"/>
        <pt x="235" y="720" on="0"/>
        <pt x="209" y="720" on="1"/>
        <pt x="183" y="720" on="0"/>
        <pt x="156" y="678" on="0"/>
        <pt x="156" y="638" on="1"/>
      </contour>
      <contour>
        <pt x="340" y="248" on="0"/>
        <pt x="418" y="340" on="0"/>
        <pt x="491" y="340" on="1"/>
        <pt x="564" y="340" on="0"/>
        <pt x="642" y="248" on="0"/>
        <pt x="642" y="162" on="1"/>
        <pt x="642" y="76" on="0"/>
        <pt x="564" y="-16" on="0"/>
        <pt x="491" y="-16" on="1"/>
        <pt x="418" y="-16" on="0"/>
        <pt x="340" y="76" on="0"/>
        <pt x="340" y="162" on="1"/>
      </contour>
      <contour>
        <pt x="438" y="122" on="0"/>
        <pt x="465" y="80" on="0"/>
        <pt x="491" y="80" on="1"/>
        <pt x="517" y="80" on="0"/>
        <pt x="544" y="122" on="0"/>
        <pt x="544" y="162" on="1"/>
        <pt x="544" y="202" on="0"/>
        <pt x="517" y="244" on="0"/>
        <pt x="491" y="244" on="1"/>
        <pt x="465" y="244" on="0"/>
        <pt x="438" y="202" on="0"/>
        <pt x="438" y="162" on="1"/>
      </contour>
    </TTGlyph>
    <TTGlyph name="percent.cv01" xMin="58" yMin="-16" xMax="642" yMax="816">
      <contour>
        <pt x="415" y="-16" on="0"/>
        <pt x="340" y="88" on="0"/>
        <pt x="340" y="194" on="1"/>
        <pt x="340" y="298" on="0"/>
        <pt x="415" y="400" on="0"/>
        <pt x="491" y="400" on="1"/>
        <pt x="642" y="400" on="0"/>
        <pt x="642" y="194" on="1"/>
        <pt x="642" y="-16" on="0"/>
        <pt x="491" y="-16" on="1"/>
      </contour>
      <contour>
        <pt x="58" y="816" on="0"/>
        <pt x="209" y="816" on="1"/>
        <pt x="285" y="816" on="0"/>
        <pt x="360" y="712" on="0"/>
        <pt x="360" y="606" on="1"/>
        <pt x="360" y="502" on="0"/>
        <pt x="285" y="400" on="0"/>
        <pt x="209" y="400" on="1"/>
        <pt x="58" y="400" on="0"/>
        <pt x="58" y="606" on="1"/>
      </contour>
      <contour>
        <pt x="227" y="340" on="1"/>
        <pt x="311" y="340" on="1"/>
        <pt x="179" y="0" on="1"/>
        <pt x="88" y="0" on="1"/>
      </contour>
      <contour>
        <pt x="156" y="496" on="0"/>
        <pt x="209" y="496" on="1"/>
        <pt x="262" y="496" on="0"/>
        <pt x="262" y="606" on="1"/>
        <pt x="262" y="664" on="0"/>
        <pt x="236" y="720" on="0"/>
        <pt x="209" y="720" on="1"/>
        <pt x="156" y="720" on="0"/>
        <pt x="156" y="606" on="1"/>
      </contour>
      <contour>
        <pt x="521" y="800" on="1"/>
        <pt x="612" y="800" on="1"/>
        <pt x="473" y="460" on="1"/>
        <pt x="389" y="460" on="1"/>
      </contour>
      <contour>
        <pt x="438" y="136" on="0"/>
        <pt x="464" y="80" on="0"/>
        <pt x="491" y="80" on="1"/>
        <pt x="544" y="80" on="0"/>
        <pt x="544" y="194" on="1"/>
        <pt x="544" y="304" on="0"/>
        <pt x="491" y="304" on="1"/>
        <pt x="438" y="304" on="0"/>
        <pt x="438" y="194" on="1"/>
      </contour>
    </TTGlyph>
    <TTGlyph name="percent.cv02" xMin="58" yMin="-19" xMax="642" yMax="819">
      <contour>
        <pt x="418" y="-16" on="0"/>
        <pt x="340" y="76" on="0"/>
        <pt x="340" y="162" on="1"/>
        <pt x="340" y="248" on="0"/>
        <pt x="418" y="340" on="0"/>
        <pt x="491" y="340" on="1"/>
        <pt x="564" y="340" on="0"/>
        <pt x="642" y="248" on="0"/>
        <pt x="642" y="162" on="1"/>
        <pt x="642" y="76" on="0"/>
        <pt x="564" y="-16" on="0"/>
        <pt x="491" y="-16" on="1"/>
      </contour>
      <contour>
        <pt x="58" y="724" on="0"/>
        <pt x="136" y="816" on="0"/>
        <pt x="209" y="816" on="1"/>
        <pt x="282" y="816" on="0"/>
        <pt x="360" y="724" on="0"/>
        <pt x="360" y="638" on="1"/>
        <pt x="360" y="552" on="0"/>
        <pt x="282" y="460" on="0"/>
        <pt x="209" y="460" on="1"/>
        <pt x="136" y="460" on="0"/>
        <pt x="58" y="552" on="0"/>
        <pt x="58" y="638" on="1"/>
      </contour>
      <contour>
        <pt x="95" y="109" on="1"/>
        <pt x="605" y="819" on="1"/>
        <pt x="605" y="691" on="1"/>
        <pt x="95" y="-19" on="1"/>
      </contour>
      <contour>
        <pt x="156" y="598" on="0"/>
        <pt x="183" y="556" on="0"/>
        <pt x="209" y="556" on="1"/>
        <pt x="235" y="556" on="0"/>
        <pt x="262" y="598" on="0"/>
        <pt x="262" y="638" on="1"/>
        <pt x="262" y="678" on="0"/>
        <pt x="235" y="720" on="0"/>
        <pt x="209" y="720" on="1"/>
        <pt x="183" y="720" on="0"/>
        <pt x="156" y="678" on="0"/>
        <pt x="156" y="638" on="1"/>
      </contour>
      <contour>
        <pt x="438" y="122" on="0"/>
        <pt x="465" y="80" on="0"/>
        <pt x="491" y="80" on="1"/>
        <pt x="517" y="80" on="0"/>
        <pt x="544" y="122" on="0"/>
        <pt x="544" y="162" on="1"/>
        <pt x="544" y="202" on="0"/>
        <pt x="517" y="244" on="0"/>
        <pt x="491" y="244" on="1"/>
        <pt x="465" y="244" on="0"/>
        <pt x="438" y="202" on="0"/>
        <pt x="438" y="162" on="1"/>
      </contour>
    </TTGlyph>
    <TTGlyph name="period" xMin="258" yMin="-8" xMax="442" yMax="183">
      <contour>
        <pt x="306" y="-8" on="0"/>
        <pt x="258" y="42" on="0"/>
        <pt x="258" y="88" on="1"/>
        <pt x="258" y="134" on="0"/>
        <pt x="306" y="183" on="0"/>
        <pt x="350" y="183" on="1"/>
        <pt x="394" y="183" on="0"/>
        <pt x="442" y="134" on="0"/>
        <pt x="442" y="88" on="1"/>
        <pt x="442" y="42" on="0"/>
        <pt x="394" y="-8" on="0"/>
        <pt x="350" y="-8" on="1"/>
      </contour>
    </TTGlyph>
    <TTGlyph name="plus" xMin="87" yMin="87" xMax="613" yMax="613">
      <contour>
        <pt x="87" y="400" on="1"/>
        <pt x="300" y="400" on="1"/>
        <pt x="300" y="613" on="1"/>
        <pt x="400" y="613" on="1"/>
        <pt x="400" y="400" on="1"/>
        <pt x="613" y="400" on="1"/>
        <pt x="613" y="300" on="1"/>
        <pt x="400" y="300" on="1"/>
        <pt x="400" y="87" on="1"/>
        <pt x="300" y="87" on="1"/>
        <pt x="300" y="300" on="1"/>
        <pt x="87" y="300" on="1"/>
      </contour>
    </TTGlyph>
    <TTGlyph name="plus.case" xMin="87" yMin="137" xMax="613" yMax="663">
      <component glyphName="plus" x="0" y="50" flags="0x4"/>
    </TTGlyph>
    <TTGlyph name="q" xMin="63" yMin="-200" xMax="595" yMax="616">
      <contour>
        <pt x="362" y="616" on="0"/>
        <pt x="443" y="564" on="0"/>
        <pt x="455" y="515" on="1"/>
        <pt x="485" y="515" on="1"/>
        <pt x="485" y="600" on="1"/>
        <pt x="595" y="600" on="1"/>
        <pt x="595" y="-200" on="1"/>
        <pt x="485" y="-200" on="1"/>
        <pt x="485" y="85" on="1"/>
        <pt x="455" y="85" on="1"/>
        <pt x="443" y="36" on="0"/>
        <pt x="362" y="-16" on="0"/>
        <pt x="299" y="-16" on="1"/>
        <pt x="228" y="-16" on="0"/>
        <pt x="121" y="61" on="0"/>
        <pt x="63" y="204" on="0"/>
        <pt x="63" y="300" on="1"/>
        <pt x="63" y="396" on="0"/>
        <pt x="121" y="539" on="0"/>
        <pt x="228" y="616" on="0"/>
        <pt x="299" y="616" on="1"/>
      </contour>
      <contour>
        <pt x="175" y="198" on="0"/>
        <pt x="258" y="85" on="0"/>
        <pt x="333" y="85" on="1"/>
        <pt x="407" y="85" on="0"/>
        <pt x="491" y="198" on="0"/>
        <pt x="491" y="300" on="1"/>
        <pt x="491" y="402" on="0"/>
        <pt x="407" y="515" on="0"/>
        <pt x="333" y="515" on="1"/>
        <pt x="258" y="515" on="0"/>
        <pt x="175" y="402" on="0"/>
        <pt x="175" y="300" on="1"/>
      </contour>
    </TTGlyph>
    <TTGlyph name="question" xMin="68" yMin="-7" xMax="613" yMax="816">
      <contour>
        <pt x="270" y="289" on="0"/>
        <pt x="305" y="371" on="0"/>
        <pt x="356" y="421" on="0"/>
        <pt x="398" y="452" on="1"/>
        <pt x="432" y="477" on="0"/>
        <pt x="471" y="513" on="0"/>
        <pt x="497" y="564" on="0"/>
        <pt x="497" y="599" on="1"/>
        <pt x="497" y="649" on="0"/>
        <pt x="420" y="706" on="0"/>
        <pt x="353" y="706" on="1"/>
        <pt x="282" y="706" on="0"/>
        <pt x="197" y="638" on="0"/>
        <pt x="191" y="576" on="1"/>
        <pt x="68" y="576" on="1"/>
        <pt x="82" y="691" on="0"/>
        <pt x="231" y="816" on="0"/>
        <pt x="353" y="816" on="1"/>
        <pt x="474" y="816" on="0"/>
        <pt x="613" y="700" on="0"/>
        <pt x="613" y="599" on="1"/>
        <pt x="613" y="545" on="0"/>
        <pt x="578" y="468" on="0"/>
        <pt x="527" y="418" on="0"/>
        <pt x="486" y="386" on="1"/>
        <pt x="450" y="357" on="0"/>
        <pt x="410" y="319" on="0"/>
        <pt x="384" y="266" on="0"/>
        <pt x="384" y="230" on="1"/>
        <pt x="270" y="230" on="1"/>
      </contour>
      <contour>
        <pt x="243" y="111" on="0"/>
        <pt x="288" y="152" on="0"/>
        <pt x="330" y="152" on="1"/>
        <pt x="371" y="152" on="0"/>
        <pt x="416" y="111" on="0"/>
        <pt x="416" y="73" on="1"/>
        <pt x="416" y="35" on="0"/>
        <pt x="371" y="-7" on="0"/>
        <pt x="330" y="-7" on="1"/>
        <pt x="288" y="-7" on="0"/>
        <pt x="243" y="35" on="0"/>
        <pt x="243" y="73" on="1"/>
      </contour>
    </TTGlyph>
    <TTGlyph name="quotedbl" xMin="175" yMin="458" xMax="525" yMax="848">
      <component glyphName="quotesingle" x="-114" y="0" flags="0x0"/>
      <component glyphName="quotesingle" x="114" y="0" flags="0x0"/>
    </TTGlyph>
    <TTGlyph name="quotedblbase" xMin="100" yMin="-180" xMax="570" yMax="183">
      <component glyphName="comma" x="-146" y="0" flags="0x0"/>
      <component glyphName="comma" x="118" y="0" flags="0x0"/>
    </TTGlyph>
    <TTGlyph name="quotedblleft" xMin="130" yMin="473" xMax="600" yMax="836">
      <contour>
        <pt x="540" y="664" on="0"/>
        <pt x="588" y="614" on="0"/>
        <pt x="588" y="568" on="1"/>
        <pt x="588" y="522" on="0"/>
        <pt x="540" y="473" on="0"/>
        <pt x="496" y="473" on="1"/>
        <pt x="444" y="473" on="0"/>
        <pt x="394" y="533" on="0"/>
        <pt x="394" y="595" on="1"/>
        <pt x="394" y="671" on="0"/>
        <pt x="425" y="789" on="0"/>
        <pt x="458" y="836" on="1"/>
        <pt x="600" y="836" on="1"/>
        <pt x="543" y="795" on="0"/>
        <pt x="479" y="710" on="0"/>
        <pt x="469" y="661" on="1"/>
        <pt x="481" y="664" on="0"/>
        <pt x="496" y="664" on="1"/>
      </contour>
      <contour>
        <pt x="130" y="671" on="0"/>
        <pt x="161" y="789" on="0"/>
        <pt x="194" y="836" on="1"/>
        <pt x="336" y="836" on="1"/>
        <pt x="279" y="795" on="0"/>
        <pt x="215" y="710" on="0"/>
        <pt x="205" y="661" on="1"/>
        <pt x="217" y="664" on="0"/>
        <pt x="232" y="664" on="1"/>
        <pt x="276" y="664" on="0"/>
        <pt x="324" y="614" on="0"/>
        <pt x="324" y="568" on="1"/>
        <pt x="324" y="522" on="0"/>
        <pt x="276" y="473" on="0"/>
        <pt x="232" y="473" on="1"/>
        <pt x="180" y="473" on="0"/>
        <pt x="130" y="533" on="0"/>
        <pt x="130" y="595" on="1"/>
      </contour>
    </TTGlyph>
    <TTGlyph name="quotedblright" xMin="100" yMin="538" xMax="570" yMax="901">
      <component glyphName="quotedblbase" x="0" y="718" flags="0x4"/>
    </TTGlyph>
    <TTGlyph name="quoteleft" xMin="248" yMin="473" xMax="454" yMax="836">
      <contour>
        <pt x="394" y="664" on="0"/>
        <pt x="442" y="614" on="0"/>
        <pt x="442" y="568" on="1"/>
        <pt x="442" y="522" on="0"/>
        <pt x="394" y="473" on="0"/>
        <pt x="350" y="473" on="1"/>
        <pt x="298" y="473" on="0"/>
        <pt x="248" y="533" on="0"/>
        <pt x="248" y="595" on="1"/>
        <pt x="248" y="671" on="0"/>
        <pt x="279" y="789" on="0"/>
        <pt x="312" y="836" on="1"/>
        <pt x="454" y="836" on="1"/>
        <pt x="397" y="795" on="0"/>
        <pt x="333" y="710" on="0"/>
        <pt x="323" y="661" on="1"/>
        <pt x="335" y="664" on="0"/>
        <pt x="350" y="664" on="1"/>
      </contour>
    </TTGlyph>
    <TTGlyph name="quoteright" xMin="246" yMin="538" xMax="452" yMax="901">
      <component glyphName="comma" x="0" y="718" flags="0x4"/>
    </TTGlyph>
    <TTGlyph name="quotesinglbase" xMin="246" yMin="-180" xMax="452" yMax="183">
      <component glyphName="comma" x="0" y="0" flags="0x0"/>
    </TTGlyph>
    <TTGlyph name="quotesingle" xMin="289" yMin="458" xMax="411" yMax="848">
      <contour>
        <pt x="411" y="848" on="1"/>
        <pt x="391" y="458" on="1"/>
        <pt x="309" y="458" on="1"/>
        <pt x="289" y="848" on="1"/>
      </contour>
    </TTGlyph>
    <TTGlyph name="r" xMin="95" yMin="0" xMax="635" yMax="616">
      <contour>
        <pt x="336" y="600" on="1"/>
        <pt x="336" y="533" on="1"/>
        <pt x="366" y="533" on="1"/>
        <pt x="391" y="616" on="0"/>
        <pt x="486" y="616" on="1"/>
        <pt x="556" y="616" on="0"/>
        <pt x="635" y="516" on="0"/>
        <pt x="635" y="427" on="1"/>
        <pt x="635" y="340" on="1"/>
        <pt x="519" y="340" on="1"/>
        <pt x="519" y="411" on="1"/>
        <pt x="519" y="512" on="0"/>
        <pt x="439" y="512" on="1"/>
        <pt x="336" y="512" on="0"/>
        <pt x="336" y="327" on="1"/>
        <pt x="336" y="103" on="1"/>
        <pt x="522" y="103" on="1"/>
        <pt x="522" y="0" on="1"/>
        <pt x="113" y="0" on="1"/>
        <pt x="113" y="103" on="1"/>
        <pt x="226" y="103" on="1"/>
        <pt x="226" y="497" on="1"/>
        <pt x="95" y="497" on="1"/>
        <pt x="95" y="600" on="1"/>
      </contour>
    </TTGlyph>
    <TTGlyph name="s" xMin="109" yMin="-16" xMax="608" yMax="616">
      <contour>
        <pt x="225" y="138" on="0"/>
        <pt x="297" y="87" on="0"/>
        <pt x="357" y="87" on="1"/>
        <pt x="416" y="87" on="0"/>
        <pt x="481" y="131" on="0"/>
        <pt x="481" y="170" on="1"/>
        <pt x="481" y="200" on="0"/>
        <pt x="432" y="234" on="0"/>
        <pt x="378" y="242" on="1"/>
        <pt x="305" y="252" on="1"/>
        <pt x="208" y="267" on="0"/>
        <pt x="113" y="355" on="0"/>
        <pt x="113" y="429" on="1"/>
        <pt x="113" y="516" on="0"/>
        <pt x="242" y="616" on="0"/>
        <pt x="355" y="616" on="1"/>
        <pt x="468" y="616" on="0"/>
        <pt x="602" y="504" on="0"/>
        <pt x="608" y="404" on="1"/>
        <pt x="500" y="404" on="1"/>
        <pt x="495" y="457" on="0"/>
        <pt x="420" y="513" on="0"/>
        <pt x="353" y="513" on="1"/>
        <pt x="291" y="513" on="0"/>
        <pt x="223" y="470" on="0"/>
        <pt x="223" y="430" on="1"/>
        <pt x="223" y="401" on="0"/>
        <pt x="271" y="366" on="0"/>
        <pt x="325" y="358" on="1"/>
        <pt x="398" y="348" on="1"/>
        <pt x="496" y="333" on="0"/>
        <pt x="590" y="246" on="0"/>
        <pt x="590" y="171" on="1"/>
        <pt x="590" y="84" on="0"/>
        <pt x="465" y="-16" on="0"/>
        <pt x="356" y="-16" on="1"/>
        <pt x="248" y="-16" on="0"/>
        <pt x="119" y="89" on="0"/>
        <pt x="109" y="184" on="1"/>
        <pt x="219" y="184" on="1"/>
      </contour>
    </TTGlyph>
    <TTGlyph name="section" xMin="117" yMin="-216" xMax="583" yMax="816">
      <contour>
        <pt x="452" y="652" on="0"/>
        <pt x="400" y="706" on="0"/>
        <pt x="357" y="706" on="1"/>
        <pt x="319" y="706" on="0"/>
        <pt x="273" y="661" on="0"/>
        <pt x="273" y="624" on="1"/>
        <pt x="273" y="535" on="0"/>
        <pt x="387" y="512" on="1"/>
        <pt x="479" y="493" on="0"/>
        <pt x="583" y="385" on="0"/>
        <pt x="583" y="308" on="1"/>
        <pt x="583" y="241" on="0"/>
        <pt x="509" y="149" on="0"/>
        <pt x="440" y="131" on="1"/>
        <pt x="440" y="100" on="1"/>
        <pt x="490" y="85" on="0"/>
        <pt x="543" y="16" on="0"/>
        <pt x="543" y="-36" on="1"/>
        <pt x="543" y="-118" on="0"/>
        <pt x="435" y="-216" on="0"/>
        <pt x="344" y="-216" on="1"/>
        <pt x="250" y="-216" on="0"/>
        <pt x="136" y="-104" on="0"/>
        <pt x="127" y="-3" on="1"/>
        <pt x="244" y="-3" on="1"/>
        <pt x="248" y="-52" on="0"/>
        <pt x="300" y="-106" on="0"/>
        <pt x="343" y="-106" on="1"/>
        <pt x="381" y="-106" on="0"/>
        <pt x="427" y="-61" on="0"/>
        <pt x="427" y="-24" on="1"/>
        <pt x="427" y="65" on="0"/>
        <pt x="313" y="88" on="1"/>
        <pt x="221" y="107" on="0"/>
        <pt x="117" y="215" on="0"/>
        <pt x="117" y="292" on="1"/>
        <pt x="117" y="359" on="0"/>
        <pt x="191" y="451" on="0"/>
        <pt x="260" y="469" on="1"/>
        <pt x="260" y="500" on="1"/>
        <pt x="210" y="515" on="0"/>
        <pt x="157" y="584" on="0"/>
        <pt x="157" y="636" on="1"/>
        <pt x="157" y="718" on="0"/>
        <pt x="265" y="816" on="0"/>
        <pt x="356" y="816" on="1"/>
        <pt x="450" y="816" on="0"/>
        <pt x="564" y="704" on="0"/>
        <pt x="573" y="603" on="1"/>
        <pt x="456" y="603" on="1"/>
      </contour>
      <contour>
        <pt x="233" y="253" on="0"/>
        <pt x="295" y="200" on="0"/>
        <pt x="350" y="200" on="1"/>
        <pt x="405" y="200" on="0"/>
        <pt x="467" y="253" on="0"/>
        <pt x="467" y="300" on="1"/>
        <pt x="467" y="347" on="0"/>
        <pt x="405" y="400" on="0"/>
        <pt x="350" y="400" on="1"/>
        <pt x="295" y="400" on="0"/>
        <pt x="233" y="347" on="0"/>
        <pt x="233" y="300" on="1"/>
      </contour>
    </TTGlyph>
    <TTGlyph name="semicolon" xMin="246" yMin="-180" xMax="452" yMax="608">
      <component glyphName="period" x="0" y="425" flags="0x4"/>
      <component glyphName="comma" x="0" y="0" flags="0x0"/>
    </TTGlyph>
    <TTGlyph name="seven" xMin="83" yMin="0" xMax="597" yMax="800">
      <contour>
        <pt x="306" y="0" on="1"/>
        <pt x="182" y="0" on="1"/>
        <pt x="510" y="690" on="1"/>
        <pt x="83" y="690" on="1"/>
        <pt x="83" y="800" on="1"/>
        <pt x="597" y="800" on="1"/>
        <pt x="597" y="625" on="1"/>
      </contour>
    </TTGlyph>
    <TTGlyph name="six" xMin="73" yMin="-16" xMax="627" yMax="800">
      <contour>
        <pt x="266" y="-16" on="0"/>
        <pt x="141" y="51" on="0"/>
        <pt x="73" y="174" on="0"/>
        <pt x="73" y="256" on="1"/>
        <pt x="73" y="320" on="0"/>
        <pt x="115" y="439" on="0"/>
        <pt x="159" y="503" on="1"/>
        <pt x="357" y="800" on="1"/>
        <pt x="494" y="800" on="1"/>
        <pt x="280" y="491" on="1"/>
        <pt x="303" y="474" on="1"/>
        <pt x="316" y="489" on="0"/>
        <pt x="371" y="507" on="0"/>
        <pt x="403" y="507" on="1"/>
        <pt x="467" y="507" on="0"/>
        <pt x="569" y="442" on="0"/>
        <pt x="627" y="328" on="0"/>
        <pt x="627" y="256" on="1"/>
        <pt x="627" y="174" on="0"/>
        <pt x="558" y="51" on="0"/>
        <pt x="432" y="-16" on="0"/>
        <pt x="349" y="-16" on="1"/>
      </contour>
      <contour>
        <pt x="189" y="183" on="0"/>
        <pt x="277" y="94" on="0"/>
        <pt x="350" y="94" on="1"/>
        <pt x="423" y="94" on="0"/>
        <pt x="511" y="183" on="0"/>
        <pt x="511" y="256" on="1"/>
        <pt x="511" y="329" on="0"/>
        <pt x="423" y="418" on="0"/>
        <pt x="350" y="418" on="1"/>
        <pt x="277" y="418" on="0"/>
        <pt x="189" y="329" on="0"/>
        <pt x="189" y="256" on="1"/>
      </contour>
    </TTGlyph>
    <TTGlyph name="slash" xMin="122" yMin="-170" xMax="578" yMax="848">
      <contour>
        <pt x="230" y="-170" on="1"/>
        <pt x="122" y="-170" on="1"/>
        <pt x="470" y="848" on="1"/>
        <pt x="578" y="848" on="1"/>
      </contour>
    </TTGlyph>
    <TTGlyph name="sterling" xMin="93" yMin="0" xMax="627" yMax="816">
      <contour>
        <pt x="151" y="211" on="0"/>
        <pt x="208" y="269" on="0"/>
        <pt x="208" y="313" on="1"/>
        <pt x="208" y="322" on="0"/>
        <pt x="206" y="340" on="1"/>
        <pt x="93" y="340" on="1"/>
        <pt x="93" y="436" on="1"/>
        <pt x="170" y="436" on="1"/>
        <pt x="155" y="472" on="0"/>
        <pt x="138" y="538" on="0"/>
        <pt x="138" y="579" on="1"/>
        <pt x="138" y="691" on="0"/>
        <pt x="264" y="816" on="0"/>
        <pt x="376" y="816" on="1"/>
        <pt x="489" y="816" on="0"/>
        <pt x="617" y="682" on="0"/>
        <pt x="627" y="553" on="1"/>
        <pt x="511" y="553" on="1"/>
        <pt x="503" y="627" on="0"/>
        <pt x="434" y="706" on="0"/>
        <pt x="376" y="706" on="1"/>
        <pt x="319" y="706" on="0"/>
        <pt x="254" y="639" on="0"/>
        <pt x="254" y="579" on="1"/>
        <pt x="254" y="543" on="0"/>
        <pt x="272" y="485" on="0"/>
        <pt x="292" y="436" on="1"/>
        <pt x="481" y="436" on="1"/>
        <pt x="481" y="340" on="1"/>
        <pt x="322" y="340" on="1"/>
        <pt x="324" y="322" on="0"/>
        <pt x="324" y="313" on="1"/>
        <pt x="324" y="237" on="0"/>
        <pt x="231" y="137" on="0"/>
        <pt x="134" y="110" on="1"/>
        <pt x="607" y="110" on="1"/>
        <pt x="607" y="0" on="1"/>
        <pt x="93" y="0" on="1"/>
        <pt x="93" y="195" on="1"/>
      </contour>
    </TTGlyph>
    <TTGlyph name="t" xMin="81" yMin="-16" xMax="611" yMax="756">
      <contour>
        <pt x="323" y="600" on="1"/>
        <pt x="593" y="600" on="1"/>
        <pt x="593" y="497" on="1"/>
        <pt x="323" y="497" on="1"/>
        <pt x="323" y="197" on="1"/>
        <pt x="323" y="88" on="0"/>
        <pt x="409" y="88" on="1"/>
        <pt x="495" y="88" on="0"/>
        <pt x="507" y="210" on="1"/>
        <pt x="611" y="210" on="1"/>
        <pt x="604" y="101" on="0"/>
        <pt x="497" y="-16" on="0"/>
        <pt x="405" y="-16" on="1"/>
        <pt x="312" y="-16" on="0"/>
        <pt x="213" y="94" on="0"/>
        <pt x="213" y="197" on="1"/>
        <pt x="213" y="497" on="1"/>
        <pt x="81" y="497" on="1"/>
        <pt x="81" y="600" on="1"/>
        <pt x="213" y="600" on="1"/>
        <pt x="213" y="756" on="1"/>
        <pt x="323" y="756" on="1"/>
      </contour>
    </TTGlyph>
    <TTGlyph name="three" xMin="67" yMin="-16" xMax="622" yMax="816">
      <contour>
        <pt x="619" y="107" on="0"/>
        <pt x="477" y="-16" on="0"/>
        <pt x="352" y="-16" on="1"/>
        <pt x="228" y="-16" on="0"/>
        <pt x="84" y="114" on="0"/>
        <pt x="73" y="234" on="1"/>
        <pt x="191" y="234" on="1"/>
        <pt x="199" y="167" on="0"/>
        <pt x="283" y="94" on="0"/>
        <pt x="352" y="94" on="1"/>
        <pt x="422" y="94" on="0"/>
        <pt x="503" y="161" on="0"/>
        <pt x="503" y="220" on="1"/>
        <pt x="503" y="279" on="0"/>
        <pt x="430" y="347" on="0"/>
        <pt x="367" y="347" on="1"/>
        <pt x="277" y="347" on="1"/>
        <pt x="277" y="455" on="1"/>
        <pt x="367" y="455" on="1"/>
        <pt x="432" y="455" on="0"/>
        <pt x="506" y="521" on="0"/>
        <pt x="506" y="579" on="1"/>
        <pt x="506" y="638" on="0"/>
        <pt x="428" y="706" on="0"/>
        <pt x="361" y="706" on="1"/>
        <pt x="287" y="706" on="0"/>
        <pt x="198" y="628" on="0"/>
        <pt x="189" y="556" on="1"/>
        <pt x="67" y="556" on="1"/>
        <pt x="80" y="681" on="0"/>
        <pt x="232" y="816" on="0"/>
        <pt x="361" y="816" on="1"/>
        <pt x="482" y="816" on="0"/>
        <pt x="622" y="691" on="0"/>
        <pt x="622" y="582" on="1"/>
        <pt x="622" y="514" on="0"/>
        <pt x="548" y="425" on="0"/>
        <pt x="484" y="416" on="1"/>
        <pt x="484" y="386" on="1"/>
        <pt x="546" y="376" on="0"/>
        <pt x="619" y="284" on="0"/>
        <pt x="619" y="214" on="1"/>
      </contour>
    </TTGlyph>
    <TTGlyph name="two" xMin="83" yMin="0" xMax="624" yMax="816">
      <contour>
        <pt x="450" y="428" on="0"/>
        <pt x="508" y="514" on="0"/>
        <pt x="508" y="564" on="1"/>
        <pt x="508" y="630" on="0"/>
        <pt x="432" y="706" on="0"/>
        <pt x="365" y="706" on="1"/>
        <pt x="298" y="706" on="0"/>
        <pt x="215" y="628" on="0"/>
        <pt x="205" y="556" on="1"/>
        <pt x="83" y="556" on="1"/>
        <pt x="95" y="680" on="0"/>
        <pt x="242" y="816" on="0"/>
        <pt x="365" y="816" on="1"/>
        <pt x="486" y="816" on="0"/>
        <pt x="624" y="681" on="0"/>
        <pt x="624" y="564" on="1"/>
        <pt x="624" y="486" on="0"/>
        <pt x="543" y="359" on="0"/>
        <pt x="456" y="297" on="1"/>
        <pt x="190" y="110" on="1"/>
        <pt x="609" y="110" on="1"/>
        <pt x="609" y="0" on="1"/>
        <pt x="103" y="0" on="1"/>
        <pt x="103" y="174" on="1"/>
        <pt x="388" y="383" on="1"/>
      </contour>
    </TTGlyph>
    <TTGlyph name="u" xMin="102" yMin="-16" xMax="587" yMax="600">
      <contour>
        <pt x="477" y="0" on="1"/>
        <pt x="477" y="83" on="1"/>
        <pt x="447" y="83" on="1"/>
        <pt x="434" y="36" on="0"/>
        <pt x="356" y="-16" on="0"/>
        <pt x="298" y="-16" on="1"/>
        <pt x="209" y="-16" on="0"/>
        <pt x="102" y="108" on="0"/>
        <pt x="102" y="211" on="1"/>
        <pt x="102" y="600" on="1"/>
        <pt x="212" y="600" on="1"/>
        <pt x="212" y="241" on="1"/>
        <pt x="212" y="166" on="0"/>
        <pt x="280" y="87" on="0"/>
        <pt x="344" y="87" on="1"/>
        <pt x="409" y="87" on="0"/>
        <pt x="477" y="166" on="0"/>
        <pt x="477" y="241" on="1"/>
        <pt x="477" y="600" on="1"/>
        <pt x="587" y="600" on="1"/>
        <pt x="587" y="0" on="1"/>
      </contour>
    </TTGlyph>
    <TTGlyph name="underscore" xMin="83" yMin="-130" xMax="617" yMax="-50">
      <contour>
        <pt x="617" y="-50" on="1"/>
        <pt x="617" y="-130" on="1"/>
        <pt x="83" y="-130" on="1"/>
        <pt x="83" y="-50" on="1"/>
      </contour>
    </TTGlyph>
    <TTGlyph name="uni0237" xMin="98" yMin="-216" xMax="502" yMax="600">
      <contour>
        <pt x="502" y="600" on="1"/>
        <pt x="502" y="-19" on="1"/>
        <pt x="502" y="-113" on="0"/>
        <pt x="397" y="-216" on="0"/>
        <pt x="300" y="-216" on="1"/>
        <pt x="210" y="-216" on="0"/>
        <pt x="104" y="-127" on="0"/>
        <pt x="98" y="-46" on="1"/>
        <pt x="206" y="-46" on="1"/>
        <pt x="210" y="-80" on="0"/>
        <pt x="257" y="-115" on="0"/>
        <pt x="300" y="-115" on="1"/>
        <pt x="345" y="-115" on="0"/>
        <pt x="392" y="-66" on="0"/>
        <pt x="392" y="-19" on="1"/>
        <pt x="392" y="497" on="1"/>
        <pt x="132" y="497" on="1"/>
        <pt x="132" y="600" on="1"/>
      </contour>
    </TTGlyph>
    <TTGlyph name="uni0306.cy" xMin="1" yMin="880" xMax="343" yMax="1024">
      <contour>
        <pt x="104" y="956" on="0"/>
        <pt x="172" y="956" on="1"/>
        <pt x="240" y="956" on="0"/>
        <pt x="246" y="1024" on="1"/>
        <pt x="343" y="1024" on="1"/>
        <pt x="337" y="957" on="0"/>
        <pt x="245" y="880" on="0"/>
        <pt x="172" y="880" on="1"/>
        <pt x="99" y="880" on="0"/>
        <pt x="7" y="957" on="0"/>
        <pt x="1" y="1024" on="1"/>
        <pt x="98" y="1024" on="1"/>
      </contour>
    </TTGlyph>
    <TTGlyph name="uni0307" xMin="0" yMin="692" xMax="168" yMax="848">
      <contour>
        <pt x="46" y="692" on="0"/>
        <pt x="0" y="735" on="0"/>
        <pt x="0" y="770" on="1"/>
        <pt x="0" y="805" on="0"/>
        <pt x="46" y="848" on="0"/>
        <pt x="84" y="848" on="1"/>
        <pt x="122" y="848" on="0"/>
        <pt x="168" y="805" on="0"/>
        <pt x="168" y="770" on="1"/>
        <pt x="168" y="735" on="0"/>
        <pt x="122" y="692" on="0"/>
        <pt x="84" y="692" on="1"/>
      </contour>
    </TTGlyph>
    <TTGlyph name="uni0308" xMin="-145" yMin="869" xMax="245" yMax="1003">
      <contour>
        <pt x="-107" y="869" on="0"/>
        <pt x="-145" y="905" on="0"/>
        <pt x="-145" y="936" on="1"/>
        <pt x="-145" y="967" on="0"/>
        <pt x="-107" y="1003" on="0"/>
        <pt x="-74" y="1003" on="1"/>
        <pt x="-41" y="1003" on="0"/>
        <pt x="-4" y="968" on="0"/>
        <pt x="-4" y="936" on="1"/>
        <pt x="-4" y="904" on="0"/>
        <pt x="-41" y="869" on="0"/>
        <pt x="-74" y="869" on="1"/>
      </contour>
      <contour>
        <pt x="104" y="968" on="0"/>
        <pt x="141" y="1003" on="0"/>
        <pt x="174" y="1003" on="1"/>
        <pt x="207" y="1003" on="0"/>
        <pt x="245" y="967" on="0"/>
        <pt x="245" y="936" on="1"/>
        <pt x="245" y="905" on="0"/>
        <pt x="207" y="869" on="0"/>
        <pt x="174" y="869" on="1"/>
        <pt x="141" y="869" on="0"/>
        <pt x="104" y="904" on="0"/>
        <pt x="104" y="936" on="1"/>
      </contour>
    </TTGlyph>
    <TTGlyph name="uni043D" xMin="113" yMin="0" xMax="586" yMax="600">
      <contour>
        <pt x="223" y="600" on="1"/>
        <pt x="223" y="347" on="1"/>
        <pt x="476" y="347" on="1"/>
        <pt x="476" y="600" on="1"/>
        <pt x="586" y="600" on="1"/>
        <pt x="586" y="0" on="1"/>
        <pt x="476" y="0" on="1"/>
        <pt x="476" y="243" on="1"/>
        <pt x="223" y="243" on="1"/>
        <pt x="223" y="0" on="1"/>
        <pt x="113" y="0" on="1"/>
        <pt x="113" y="600" on="1"/>
      </contour>
    </TTGlyph>
    <TTGlyph name="uni043E" xMin="78" yMin="-16" xMax="622" yMax="616">
      <component glyphName="o" x="0" y="0" flags="0x0"/>
    </TTGlyph>
    <TTGlyph name="uni20BD" xMin="49" yMin="0" xMax="654" yMax="800">
      <contour>
        <pt x="516" y="800" on="0"/>
        <pt x="654" y="672" on="0"/>
        <pt x="654" y="560" on="1"/>
        <pt x="654" y="448" on="0"/>
        <pt x="516" y="320" on="0"/>
        <pt x="397" y="320" on="1"/>
        <pt x="263" y="320" on="1"/>
        <pt x="263" y="240" on="1"/>
        <pt x="443" y="240" on="1"/>
        <pt x="443" y="148" on="1"/>
        <pt x="263" y="148" on="1"/>
        <pt x="263" y="0" on="1"/>
        <pt x="153" y="0" on="1"/>
        <pt x="153" y="148" on="1"/>
        <pt x="49" y="148" on="1"/>
        <pt x="49" y="240" on="1"/>
        <pt x="153" y="240" on="1"/>
        <pt x="153" y="320" on="1"/>
        <pt x="49" y="320" on="1"/>
        <pt x="49" y="412" on="1"/>
        <pt x="153" y="412" on="1"/>
        <pt x="153" y="800" on="1"/>
        <pt x="397" y="800" on="1"/>
      </contour>
      <contour>
        <pt x="401" y="422" on="1"/>
        <pt x="465" y="422" on="0"/>
        <pt x="538" y="494" on="0"/>
        <pt x="538" y="556" on="1"/>
        <pt x="538" y="618" on="0"/>
        <pt x="465" y="690" on="0"/>
        <pt x="401" y="690" on="1"/>
        <pt x="263" y="690" on="1"/>
        <pt x="263" y="422" on="1"/>
      </contour>
    </TTGlyph>
    <TTGlyph name="v" xMin="63" yMin="0" xMax="637" yMax="600">
      <contour>
        <pt x="179" y="600" on="1"/>
        <pt x="353" y="54" on="1"/>
        <pt x="527" y="600" on="1"/>
        <pt x="637" y="600" on="1"/>
        <pt x="439" y="0" on="1"/>
        <pt x="260" y="0" on="1"/>
        <pt x="63" y="600" on="1"/>
      </contour>
    </TTGlyph>
    <TTGlyph name="w" xMin="30" yMin="0" xMax="670" yMax="600">
      <contour>
        <pt x="146" y="600" on="1"/>
        <pt x="216" y="66" on="1"/>
        <pt x="273" y="600" on="1"/>
        <pt x="436" y="600" on="1"/>
        <pt x="488" y="72" on="1"/>
        <pt x="558" y="600" on="1"/>
        <pt x="670" y="600" on="1"/>
        <pt x="563" y="0" on="1"/>
        <pt x="410" y="0" on="1"/>
        <pt x="351" y="552" on="1"/>
        <pt x="291" y="0" on="1"/>
        <pt x="137" y="0" on="1"/>
        <pt x="30" y="600" on="1"/>
      </contour>
    </TTGlyph>
    <TTGlyph name="x" xMin="72" yMin="0" xMax="628" yMax="600">
      <contour>
        <pt x="258" y="285" on="1"/>
        <pt x="72" y="600" on="1"/>
        <pt x="196" y="600" on="1"/>
        <pt x="348" y="335" on="1"/>
        <pt x="511" y="600" on="1"/>
        <pt x="628" y="600" on="1"/>
        <pt x="438" y="295" on="1"/>
        <pt x="617" y="0" on="1"/>
        <pt x="493" y="0" on="1"/>
        <pt x="347" y="246" on="1"/>
        <pt x="200" y="0" on="1"/>
        <pt x="83" y="0" on="1"/>
      </contour>
    </TTGlyph>
    <TTGlyph name="y" xMin="53" yMin="-216" xMax="647" yMax="600">
      <contour>
        <pt x="178" y="600" on="1"/>
        <pt x="370" y="79" on="1"/>
        <pt x="528" y="600" on="1"/>
        <pt x="647" y="600" on="1"/>
        <pt x="433" y="-71" on="1"/>
        <pt x="386" y="-216" on="0"/>
        <pt x="271" y="-216" on="1"/>
        <pt x="197" y="-216" on="0"/>
        <pt x="108" y="-131" on="0"/>
        <pt x="99" y="-52" on="1"/>
        <pt x="207" y="-52" on="1"/>
        <pt x="215" y="-84" on="0"/>
        <pt x="244" y="-114" on="0"/>
        <pt x="268" y="-114" on="1"/>
        <pt x="312" y="-114" on="0"/>
        <pt x="334" y="-41" on="1"/>
        <pt x="362" y="50" on="1"/>
        <pt x="267" y="50" on="1"/>
        <pt x="53" y="600" on="1"/>
      </contour>
    </TTGlyph>
    <TTGlyph name="yen" xMin="41" yMin="0" xMax="659" yMax="800">
      <contour>
        <pt x="350" y="459" on="1"/>
        <pt x="532" y="800" on="1"/>
        <pt x="659" y="800" on="1"/>
        <pt x="432" y="389" on="1"/>
        <pt x="583" y="389" on="1"/>
        <pt x="583" y="297" on="1"/>
        <pt x="407" y="297" on="1"/>
        <pt x="407" y="217" on="1"/>
        <pt x="583" y="217" on="1"/>
        <pt x="583" y="125" on="1"/>
        <pt x="407" y="125" on="1"/>
        <pt x="407" y="0" on="1"/>
        <pt x="293" y="0" on="1"/>
        <pt x="293" y="125" on="1"/>
        <pt x="117" y="125" on="1"/>
        <pt x="117" y="217" on="1"/>
        <pt x="293" y="217" on="1"/>
        <pt x="293" y="297" on="1"/>
        <pt x="117" y="297" on="1"/>
        <pt x="117" y="389" on="1"/>
        <pt x="268" y="389" on="1"/>
        <pt x="41" y="800" on="1"/>
        <pt x="170" y="800" on="1"/>
      </contour>
    </TTGlyph>
    <TTGlyph name="z" xMin="124" yMin="0" xMax="576" yMax="600">
      <contour>
        <pt x="576" y="600" on="1"/>
        <pt x="576" y="410" on="1"/>
        <pt x="182" y="103" on="1"/>
        <pt x="576" y="103" on="1"/>
        <pt x="576" y="0" on="1"/>
        <pt x="124" y="0" on="1"/>
        <pt x="124" y="190" on="1"/>
        <pt x="518" y="497" on="1"/>
        <pt x="124" y="497" on="1"/>
        <pt x="124" y="600" on="1"/>
      </contour>
    </TTGlyph>
    <TTGlyph name="zero" xMin="58" yMin="-16" xMax="642" yMax="816">
      <contour>
        <pt x="58" y="-16" on="0"/>
        <pt x="58" y="400" on="1"/>
        <pt x="58" y="816" on="0"/>
        <pt x="350" y="816" on="1"/>
        <pt x="642" y="816" on="0"/>
        <pt x="642" y="400" on="1"/>
        <pt x="642" y="-16" on="0"/>
        <pt x="350" y="-16" on="1"/>
      </contour>
      <contour>
        <pt x="172" y="374" on="0"/>
        <pt x="174" y="332" on="1"/>
        <pt x="507" y="583" on="1"/>
        <pt x="487" y="647" on="0"/>
        <pt x="409" y="709" on="0"/>
        <pt x="350" y="709" on="1"/>
        <pt x="258" y="709" on="0"/>
        <pt x="172" y="559" on="0"/>
        <pt x="172" y="400" on="1"/>
      </contour>
      <contour>
        <pt x="213" y="153" on="0"/>
        <pt x="290" y="91" on="0"/>
        <pt x="350" y="91" on="1"/>
        <pt x="442" y="91" on="0"/>
        <pt x="528" y="241" on="0"/>
        <pt x="528" y="400" on="1"/>
        <pt x="528" y="425" on="0"/>
        <pt x="526" y="467" on="1"/>
        <pt x="194" y="217" on="1"/>
      </contour>
    </TTGlyph>
</ttFont>
